<?xml version="1.0" encoding="UTF-8"?>
<!DOCTYPE svg PUBLIC "-//W3C//DTD SVG 1.1//EN" "http://www.w3.org/Graphics/SVG/1.1/DTD/svg11.dtd">
<svg xmlns="http://www.w3.org/2000/svg" version="1.1" width="887px" height="800px" style="shape-rendering:geometricPrecision; text-rendering:geometricPrecision; image-rendering:optimizeQuality; fill-rule:evenodd; clip-rule:evenodd" xmlns:xlink="http://www.w3.org/1999/xlink">
<g><path style="opacity:0.815" fill="#e86606" d="M 481.5,79.5 C 480.167,79.5 478.833,79.5 477.5,79.5C 471.593,54.7834 455.926,43.9501 430.5,47C 427.007,47.9419 423.674,49.2752 420.5,51C 415.678,54.8217 411.178,58.9884 407,63.5C 392.264,45.1578 374.43,41.3245 353.5,52C 344.119,58.9398 338.452,68.1065 336.5,79.5C 335.167,79.5 333.833,79.5 332.5,79.5C 335.998,55.3396 349.998,42.673 374.5,41.5C 387.415,41.3752 398.249,46.0419 407,55.5C 420.718,41.6964 436.884,37.8631 455.5,44C 471.134,50.7807 479.801,62.614 481.5,79.5 Z"/></g>
<g><path style="opacity:0.821" fill="#e8594a" d="M 332.5,79.5 C 333.833,79.5 335.167,79.5 336.5,79.5C 337.025,84.6003 338.025,89.6003 339.5,94.5C 337.833,94.5 336.167,94.5 334.5,94.5C 332.848,89.6591 332.182,84.6591 332.5,79.5 Z"/></g>
<g><path style="opacity:0.813" fill="#e8594a" d="M 477.5,79.5 C 478.833,79.5 480.167,79.5 481.5,79.5C 481.818,84.6591 481.152,89.6591 479.5,94.5C 477.833,94.5 476.167,94.5 474.5,94.5C 475.975,89.6003 476.975,84.6003 477.5,79.5 Z"/></g>
<g><path style="opacity:0.756" fill="#e82c4c" d="M 334.5,94.5 C 336.167,94.5 337.833,94.5 339.5,94.5C 342.566,100.296 345.9,105.962 349.5,111.5C 347.5,111.5 345.5,111.5 343.5,111.5C 339.737,106.312 336.737,100.645 334.5,94.5 Z"/></g>
<g><path style="opacity:0.842" fill="#e82c4c" d="M 474.5,94.5 C 476.167,94.5 477.833,94.5 479.5,94.5C 476.755,100.325 473.755,105.992 470.5,111.5C 468.5,111.5 466.5,111.5 464.5,111.5C 468.1,105.962 471.434,100.296 474.5,94.5 Z"/></g>
<g><path style="opacity:0.804" fill="#e71866" d="M 343.5,111.5 C 345.5,111.5 347.5,111.5 349.5,111.5C 354.73,117.613 359.73,123.946 364.5,130.5C 362.5,130.5 360.5,130.5 358.5,130.5C 353.15,124.478 348.15,118.145 343.5,111.5 Z"/></g>
<g><path style="opacity:0.804" fill="#e61866" d="M 464.5,111.5 C 466.5,111.5 468.5,111.5 470.5,111.5C 465.85,118.145 460.85,124.478 455.5,130.5C 453.5,130.5 451.5,130.5 449.5,130.5C 454.27,123.946 459.27,117.613 464.5,111.5 Z"/></g>
<g><path style="opacity:0.742" fill="#b91794" d="M 358.5,130.5 C 360.5,130.5 362.5,130.5 364.5,130.5C 365.488,131.795 366.488,133.128 367.5,134.5C 365.5,134.5 363.5,134.5 361.5,134.5C 360.512,133.205 359.512,131.872 358.5,130.5 Z"/></g>
<g><path style="opacity:0.751" fill="#b91794" d="M 449.5,130.5 C 451.5,130.5 453.5,130.5 455.5,130.5C 454.488,131.872 453.488,133.205 452.5,134.5C 450.5,134.5 448.5,134.5 446.5,134.5C 447.512,133.128 448.512,131.795 449.5,130.5 Z"/></g>
<g><path style="opacity:0.751" fill="#8616b8" d="M 361.5,134.5 C 363.5,134.5 365.5,134.5 367.5,134.5C 369.137,136.475 370.804,138.475 372.5,140.5C 370.5,140.5 368.5,140.5 366.5,140.5C 364.367,138.909 362.701,136.909 361.5,134.5 Z"/></g>
<g><path style="opacity:0.742" fill="#8616b8" d="M 446.5,134.5 C 448.5,134.5 450.5,134.5 452.5,134.5C 450.823,136.54 449.156,138.54 447.5,140.5C 445.5,140.5 443.5,140.5 441.5,140.5C 443.196,138.475 444.863,136.475 446.5,134.5 Z"/></g>
<g><path style="opacity:0.742" fill="#411ceb" d="M 366.5,140.5 C 368.5,140.5 370.5,140.5 372.5,140.5C 376.578,145.238 380.244,150.238 383.5,155.5C 381.833,155.5 380.167,155.5 378.5,155.5C 373.79,151.087 369.79,146.087 366.5,140.5 Z"/></g>
<g><path style="opacity:0.751" fill="#411ceb" d="M 441.5,140.5 C 443.5,140.5 445.5,140.5 447.5,140.5C 444.21,146.087 440.21,151.087 435.5,155.5C 433.833,155.5 432.167,155.5 430.5,155.5C 433.756,150.238 437.422,145.238 441.5,140.5 Z"/></g>
<g><path style="opacity:0.751" fill="#2945fb" d="M 378.5,155.5 C 380.167,155.5 381.833,155.5 383.5,155.5C 385.587,156.585 386.92,158.251 387.5,160.5C 385.833,160.5 384.167,160.5 382.5,160.5C 380.413,159.415 379.08,157.749 378.5,155.5 Z"/></g>
<g><path style="opacity:0.751" fill="#2945fb" d="M 430.5,155.5 C 432.167,155.5 433.833,155.5 435.5,155.5C 434.92,157.749 433.587,159.415 431.5,160.5C 429.833,160.5 428.167,160.5 426.5,160.5C 427.08,158.251 428.413,156.585 430.5,155.5 Z"/></g>
<g><path style="opacity:0.751" fill="#2664fd" d="M 382.5,160.5 C 384.167,160.5 385.833,160.5 387.5,160.5C 389.89,161.891 391.557,163.891 392.5,166.5C 390.5,166.5 388.5,166.5 386.5,166.5C 384.748,164.754 383.415,162.754 382.5,160.5 Z"/></g>
<g><path style="opacity:0.742" fill="#2664fd" d="M 426.5,160.5 C 428.167,160.5 429.833,160.5 431.5,160.5C 430.585,162.754 429.252,164.754 427.5,166.5C 425.5,166.5 423.5,166.5 421.5,166.5C 422.443,163.891 424.11,161.891 426.5,160.5 Z"/></g>
<g><path style="opacity:0.876" fill="#2788ff" d="M 386.5,166.5 C 388.5,166.5 390.5,166.5 392.5,166.5C 394.471,168.808 396.471,171.142 398.5,173.5C 396.5,173.5 394.5,173.5 392.5,173.5C 390.529,171.192 388.529,168.858 386.5,166.5 Z"/></g>
<g><path style="opacity:0.865" fill="#2788ff" d="M 421.5,166.5 C 423.5,166.5 425.5,166.5 427.5,166.5C 425.471,168.858 423.471,171.192 421.5,173.5C 419.5,173.5 417.5,173.5 415.5,173.5C 417.273,170.94 419.273,168.607 421.5,166.5 Z"/></g>
<g><path style="opacity:0.837" fill="#29c7ff" d="M 392.5,173.5 C 394.5,173.5 396.5,173.5 398.5,173.5C 404.072,182.701 409.739,182.701 415.5,173.5C 417.5,173.5 419.5,173.5 421.5,173.5C 419.853,176.473 417.853,179.14 415.5,181.5C 409.833,181.5 404.167,181.5 398.5,181.5C 396.147,179.14 394.147,176.473 392.5,173.5 Z"/></g>
<g><path style="opacity:0.871" fill="#29e4ff" d="M 398.5,181.5 C 404.167,181.5 409.833,181.5 415.5,181.5C 409.833,186.833 404.167,186.833 398.5,181.5 Z"/></g>
<g><path style="opacity:0.733" fill="#f4feff" d="M 449.5,323.5 C 448.833,323.167 448.167,322.833 447.5,322.5C 447.371,320.784 447.038,319.117 446.5,317.5C 446.634,315.708 446.301,314.042 445.5,312.5C 445.768,310.901 445.434,309.568 444.5,308.5C 444.675,306.379 444.341,304.379 443.5,302.5C 443.768,300.901 443.434,299.568 442.5,298.5C 442.784,296.585 442.451,294.919 441.5,293.5C 441.634,291.708 441.301,290.042 440.5,288.5C 440.634,286.708 440.301,285.042 439.5,283.5C 439.634,281.708 439.301,280.042 438.5,278.5C 434.752,257.106 430.586,235.773 426,214.5C 422.029,206.276 415.529,203.442 406.5,206C 400.23,208.535 397.23,213.202 397.5,220C 400.79,239.909 404.457,259.742 408.5,279.5C 408.927,282.01 409.593,284.343 410.5,286.5C 410.216,288.415 410.549,290.081 411.5,291.5C 411.216,293.415 411.549,295.081 412.5,296.5C 412.216,298.415 412.549,300.081 413.5,301.5C 413.232,303.099 413.566,304.432 414.5,305.5C 414.5,306.833 414.5,308.167 414.5,309.5C 414.167,309.5 413.833,309.5 413.5,309.5C 407.059,279.462 401.059,249.295 395.5,219C 396.889,208.95 402.723,203.783 413,203.5C 420.667,204.167 425.667,208.167 428,215.5C 434.978,251.557 442.145,287.557 449.5,323.5 Z"/></g>
<g><path style="opacity:1" fill="#84fefe" d="M 438.5,278.5 C 428.5,278.833 418.5,279.167 408.5,279.5C 404.457,259.742 400.79,239.909 397.5,220C 397.23,213.202 400.23,208.535 406.5,206C 415.529,203.442 422.029,206.276 426,214.5C 430.586,235.773 434.752,257.106 438.5,278.5 Z"/></g>
<g><path style="opacity:0.984" fill="#eefdff" d="M 505.5,245.5 C 531.822,246.091 548.656,259.091 556,284.5C 561.828,307.535 558.161,328.868 545,348.5C 529.087,368.02 509.587,372.853 486.5,363C 467.826,349.823 458.493,331.657 458.5,308.5C 458.828,284.674 468.495,265.84 487.5,252C 493.301,248.903 499.301,246.736 505.5,245.5 Z"/></g>
<g><path style="opacity:1" fill="#35f4ff" d="M 547.5,270.5 C 523.043,250.005 498.043,249.338 472.5,268.5C 487.866,247.241 507.533,242.074 531.5,253C 538.112,257.774 543.445,263.607 547.5,270.5 Z"/></g>
<g><path style="opacity:1" fill="#2fe6ff" d="M 547.5,270.5 C 551.146,274.797 553.48,279.797 554.5,285.5C 537.488,259.553 514.488,252.387 485.5,264C 477.306,269.695 470.306,276.528 464.5,284.5C 466.115,278.604 468.781,273.271 472.5,268.5C 498.043,249.338 523.043,250.005 547.5,270.5 Z"/></g>
<g><path style="opacity:1" fill="#2ad7ff" d="M 556.5,313.5 C 556.156,317.894 555.49,322.228 554.5,326.5C 541.148,349.91 521.148,358.744 494.5,353C 470.839,343.523 460.006,326.023 462,300.5C 468.655,272.924 486.155,259.424 514.5,260C 543.434,266.008 557.434,283.842 556.5,313.5 Z"/></g>
<g><path style="opacity:1" fill="#29d1ff" d="M 501.5,261.5 C 530.707,259.898 548.54,273.231 555,301.5C 556.34,328.817 543.84,345.983 517.5,353C 489.59,355.401 471.757,343.234 464,316.5C 461.357,287.671 473.857,269.337 501.5,261.5 Z"/></g>
<g><path style="opacity:1" fill="#28cbff" d="M 499.5,263.5 C 527.496,260.696 545.329,272.696 553,299.5C 554.735,330.766 540.069,348.433 509,352.5C 479.923,349.091 465.257,332.757 465,303.5C 467.913,282.628 479.413,269.294 499.5,263.5 Z"/></g>
<g><path style="opacity:1" fill="#28c4ff" d="M 505.5,264.5 C 533.734,265.25 549.067,279.583 551.5,307.5C 549.647,333.854 535.48,348.187 509,350.5C 483.257,347.591 469.091,333.257 466.5,307.5C 468.754,283.252 481.754,268.919 505.5,264.5 Z"/></g>
<g><path style="opacity:1" fill="#28beff" d="M 503.5,266.5 C 529.009,265.662 544.509,277.662 550,302.5C 550.946,327.11 539.446,342.277 515.5,348C 490.728,349.545 475.228,338.379 469,314.5C 467.257,288.772 478.757,272.772 503.5,266.5 Z"/></g>
<g><path style="opacity:1" fill="#28b8ff" d="M 501.5,268.5 C 533.104,267.605 548.604,282.938 548,314.5C 541.396,338.057 525.896,348.557 501.5,346C 477.946,338.777 467.779,322.943 471,298.5C 475.788,282.877 485.955,272.877 501.5,268.5 Z"/></g>
<g><path style="opacity:1" fill="#27b2ff" d="M 505.5,269.5 C 530.539,270.148 544.206,282.814 546.5,307.5C 544.978,330.856 532.478,343.523 509,345.5C 486.235,342.902 473.735,330.236 471.5,307.5C 473.394,286.277 484.728,273.611 505.5,269.5 Z"/></g>
<g><path style="opacity:1" fill="#27abff" d="M 505.5,271.5 C 529.255,271.922 542.588,283.922 545.5,307.5C 543.152,329.181 531.152,341.181 509.5,343.5C 487.825,341.159 475.825,329.159 473.5,307.5C 475.428,287.579 486.095,275.579 505.5,271.5 Z"/></g>
<g><path style="opacity:1" fill="#27a1ff" d="M 503.5,273.5 C 524.698,272.34 537.865,282.006 543,302.5C 544.281,322.765 535.114,335.599 515.5,341C 487.796,341.63 474.629,328.13 476,300.5C 479.756,285.91 488.923,276.91 503.5,273.5 Z"/></g>
<g><path style="opacity:1" fill="#2699ff" d="M 506.5,276.5 C 526.809,277.123 537.809,287.456 539.5,307.5C 538.376,326.292 528.376,336.626 509.5,338.5C 490.811,336.478 480.478,326.145 478.5,307.5C 480.207,290.132 489.54,279.799 506.5,276.5 Z"/></g>
<g><path style="opacity:1" fill="#7cf2ff" d="M 438.5,278.5 C 439.301,280.042 439.634,281.708 439.5,283.5C 432.159,283.334 424.826,283.5 417.5,284C 414.639,283.97 412.305,284.803 410.5,286.5C 409.593,284.343 408.927,282.01 408.5,279.5C 418.5,279.167 428.5,278.833 438.5,278.5 Z"/></g>
<g><path style="opacity:1" fill="#268eff" d="M 506.5,278.5 C 525.606,278.942 535.939,288.609 537.5,307.5C 534.958,328.946 522.958,338.113 501.5,335C 484.891,328.283 478.391,316.117 482,298.5C 486.498,287.154 494.665,280.488 506.5,278.5 Z"/></g>
<g><path style="opacity:1" fill="#2582ff" d="M 504.5,282.5 C 524.482,281.983 534.316,291.65 534,311.5C 529.991,326.596 520.158,333.429 504.5,332C 489.317,327.481 482.817,317.314 485,301.5C 488.121,291.544 494.621,285.21 504.5,282.5 Z"/></g>
<g><path style="opacity:1" fill="#74e6ff" d="M 439.5,283.5 C 440.301,285.042 440.634,286.708 440.5,288.5C 430.833,288.5 421.167,288.5 411.5,288.5C 411.5,289.5 411.5,290.5 411.5,291.5C 410.549,290.081 410.216,288.415 410.5,286.5C 412.305,284.803 414.639,283.97 417.5,284C 424.826,283.5 432.159,283.334 439.5,283.5 Z"/></g>
<g><path style="opacity:1" fill="#2579ff" d="M 504.5,286.5 C 521.816,285.983 530.316,294.317 530,311.5C 524.538,326.978 514.038,331.811 498.5,326C 489.62,319.738 486.453,311.238 489,300.5C 491.844,293.151 497.011,288.484 504.5,286.5 Z"/></g>
<g><path style="opacity:1" fill="#2571ff" d="M 504.5,288.5 C 520.001,287.838 527.834,295.172 528,310.5C 524.767,322.539 516.934,327.705 504.5,326C 491.304,320.43 487.47,310.93 493,297.5C 496.045,293.406 499.878,290.406 504.5,288.5 Z"/></g>
<g><path style="opacity:1" fill="#6cd9ff" d="M 440.5,288.5 C 441.301,290.042 441.634,291.708 441.5,293.5C 433.493,293.334 425.493,293.5 417.5,294C 415.256,294.05 413.589,294.883 412.5,296.5C 411.549,295.081 411.216,293.415 411.5,291.5C 411.5,290.5 411.5,289.5 411.5,288.5C 421.167,288.5 430.833,288.5 440.5,288.5 Z"/></g>
<g><path style="opacity:1" fill="#64cdff" d="M 441.5,293.5 C 442.451,294.919 442.784,296.585 442.5,298.5C 435.492,298.334 428.492,298.5 421.5,299C 418.325,298.947 415.658,299.78 413.5,301.5C 412.549,300.081 412.216,298.415 412.5,296.5C 413.589,294.883 415.256,294.05 417.5,294C 425.493,293.5 433.493,293.334 441.5,293.5 Z"/></g>
<g><path style="opacity:1" fill="#5bc0ff" d="M 442.5,298.5 C 443.434,299.568 443.768,300.901 443.5,302.5C 434.213,303.281 424.88,303.781 415.5,304C 414.944,304.383 414.611,304.883 414.5,305.5C 413.566,304.432 413.232,303.099 413.5,301.5C 415.658,299.78 418.325,298.947 421.5,299C 428.492,298.5 435.492,298.334 442.5,298.5 Z"/></g>
<g><path style="opacity:1" fill="#31dfff" d="M 554.5,285.5 C 557.458,294.779 558.125,304.113 556.5,313.5C 557.434,283.842 543.434,266.008 514.5,260C 486.155,259.424 468.655,272.924 462,300.5C 460.006,326.023 470.839,343.523 494.5,353C 521.148,358.744 541.148,349.91 554.5,326.5C 552.322,334.08 548.655,340.746 543.5,346.5C 521.85,361.861 499.85,362.361 477.5,348C 473.602,344.271 469.935,340.438 466.5,336.5C 462.101,327.636 460.101,318.136 460.5,308C 460.249,299.773 461.582,291.939 464.5,284.5C 470.306,276.528 477.306,269.695 485.5,264C 514.488,252.387 537.488,259.553 554.5,285.5 Z"/></g>
<g><path style="opacity:1" fill="#52b4ff" d="M 443.5,302.5 C 444.341,304.379 444.675,306.379 444.5,308.5C 436.16,308.334 427.827,308.5 419.5,309C 417.942,309.21 416.609,309.71 415.5,310.5C 414.833,310.5 414.5,310.167 414.5,309.5C 414.5,308.167 414.5,306.833 414.5,305.5C 414.611,304.883 414.944,304.383 415.5,304C 424.88,303.781 434.213,303.281 443.5,302.5 Z"/></g>
<g><path style="opacity:1" fill="#4aa8ff" d="M 444.5,308.5 C 445.434,309.568 445.768,310.901 445.5,312.5C 435.456,312.658 425.789,313.658 416.5,315.5C 415.549,314.081 415.216,312.415 415.5,310.5C 416.609,309.71 417.942,309.21 419.5,309C 427.827,308.5 436.16,308.334 444.5,308.5 Z"/></g>
<g><path style="opacity:1" fill="#439cff" d="M 445.5,312.5 C 446.301,314.042 446.634,315.708 446.5,317.5C 438.16,317.334 429.827,317.5 421.5,318C 419.563,318.122 418.23,318.955 417.5,320.5C 416.549,319.081 416.216,317.415 416.5,315.5C 425.789,313.658 435.456,312.658 445.5,312.5 Z"/></g>
<g><path style="opacity:1" fill="#3a8fff" d="M 446.5,317.5 C 447.038,319.117 447.371,320.784 447.5,322.5C 440.83,322.712 434.164,323.046 427.5,323.5C 424.087,323.517 421.087,324.184 418.5,325.5C 417.549,324.081 417.216,322.415 417.5,320.5C 418.23,318.955 419.563,318.122 421.5,318C 429.827,317.5 438.16,317.334 446.5,317.5 Z"/></g>
<g><path style="opacity:1" fill="#3282ff" d="M 447.5,322.5 C 448.038,324.117 448.371,325.784 448.5,327.5C 441.173,328.166 433.839,328.832 426.5,329.5C 423.731,329.529 421.397,330.195 419.5,331.5C 418.539,329.735 418.205,327.735 418.5,325.5C 421.087,324.184 424.087,323.517 427.5,323.5C 434.164,323.046 440.83,322.712 447.5,322.5 Z"/></g>
<g><path style="opacity:1" fill="#2b73fb" d="M 448.5,327.5 C 449.552,331.426 450.218,335.426 450.5,339.5C 450.389,340.117 450.056,340.617 449.5,341C 440.12,341.219 430.787,341.719 421.5,342.5C 420.417,338.915 419.751,335.249 419.5,331.5C 421.397,330.195 423.731,329.529 426.5,329.5C 433.839,328.832 441.173,328.166 448.5,327.5 Z"/></g>
<g><path style="opacity:1" fill="#3a70ec" d="M 450.5,339.5 C 451.615,343.046 452.615,346.712 453.5,350.5C 443.473,350.301 433.473,350.634 423.5,351.5C 422.833,348.5 422.167,345.5 421.5,342.5C 430.787,341.719 440.12,341.219 449.5,341C 450.056,340.617 450.389,340.117 450.5,339.5 Z"/></g>
<g><path style="opacity:1" fill="#34f3ff" d="M 466.5,336.5 C 469.935,340.438 473.602,344.271 477.5,348C 499.85,362.361 521.85,361.861 543.5,346.5C 532.382,362.55 517.049,369.05 497.5,366C 482.381,361.044 472.048,351.211 466.5,336.5 Z"/></g>
<g><path style="opacity:1" fill="#4870e1" d="M 453.5,350.5 C 456.764,352.094 459.431,354.427 461.5,357.5C 449.336,358.445 437.003,359.111 424.5,359.5C 423.908,356.873 423.575,354.206 423.5,351.5C 433.473,350.634 443.473,350.301 453.5,350.5 Z"/></g>
<g><path style="opacity:1" fill="#546fd5" d="M 461.5,357.5 C 464.5,359.833 467.167,362.5 469.5,365.5C 467.708,366.309 465.708,366.809 463.5,367C 451.161,367.449 438.827,367.949 426.5,368.5C 425.938,365.454 425.271,362.454 424.5,359.5C 437.003,359.111 449.336,358.445 461.5,357.5 Z"/></g>
<g><path style="opacity:1" fill="#5e6eca" d="M 469.5,365.5 C 472.833,368.167 475.833,371.167 478.5,374.5C 460.357,375.97 442.357,376.304 424.5,375.5C 425.455,373.254 426.122,370.921 426.5,368.5C 438.827,367.949 451.161,367.449 463.5,367C 465.708,366.809 467.708,366.309 469.5,365.5 Z"/></g>
<g><path style="opacity:1" fill="#6c6dbe" d="M 478.5,374.5 C 482.12,376.453 485.12,379.119 487.5,382.5C 465.005,384.291 442.338,385.625 419.5,386.5C 420.93,382.646 422.597,378.979 424.5,375.5C 442.357,376.304 460.357,375.97 478.5,374.5 Z"/></g>
<g><path style="opacity:1" fill="#776db3" d="M 487.5,382.5 C 490.5,385.167 493.5,387.833 496.5,390.5C 473.2,392.508 449.7,393.841 426,394.5C 422.648,394.498 419.482,394.165 416.5,393.5C 417.264,390.982 418.264,388.649 419.5,386.5C 442.338,385.625 465.005,384.291 487.5,382.5 Z"/></g>
<g><path style="opacity:1" fill="#806cab" d="M 496.5,390.5 C 498.525,392.196 500.525,393.863 502.5,395.5C 474.828,396.94 446.994,398.274 419,399.5C 417.014,399.431 415.514,398.765 414.5,397.5C 414.66,395.847 415.326,394.514 416.5,393.5C 419.482,394.165 422.648,394.498 426,394.5C 449.7,393.841 473.2,392.508 496.5,390.5 Z"/></g>
<g><path style="opacity:1" fill="#866ca5" d="M 502.5,395.5 C 504.167,396.833 505.833,398.167 507.5,399.5C 480.186,401.405 452.686,402.738 425,403.5C 420.653,403.499 416.486,403.166 412.5,402.5C 412.796,400.597 413.463,398.93 414.5,397.5C 415.514,398.765 417.014,399.431 419,399.5C 446.994,398.274 474.828,396.94 502.5,395.5 Z"/></g>
<g><path style="opacity:1" fill="#916b9c" d="M 507.5,399.5 C 510.874,402.51 514.208,405.51 517.5,408.5C 482.817,409.424 448.15,410.757 413.5,412.5C 411.631,412.493 409.964,412.16 408.5,411.5C 409.042,408.088 410.375,405.088 412.5,402.5C 416.486,403.166 420.653,403.499 425,403.5C 452.686,402.738 480.186,401.405 507.5,399.5 Z"/></g>
<g><path style="opacity:1" fill="#996b94" d="M 517.5,408.5 C 519.404,408.738 520.738,409.738 521.5,411.5C 521.082,412.222 520.416,412.722 519.5,413C 483.153,414.291 446.82,415.791 410.5,417.5C 408.667,417.415 407.334,416.748 406.5,415.5C 406.66,413.847 407.326,412.514 408.5,411.5C 409.964,412.16 411.631,412.493 413.5,412.5C 448.15,410.757 482.817,409.424 517.5,408.5 Z"/></g>
<g><path style="opacity:1" fill="#a06b8e" d="M 521.5,411.5 C 523.909,412.701 525.909,414.367 527.5,416.5C 486.355,418.737 445.355,420.071 404.5,420.5C 404.402,418.447 405.069,416.78 406.5,415.5C 407.334,416.748 408.667,417.415 410.5,417.5C 446.82,415.791 483.153,414.291 519.5,413C 520.416,412.722 521.082,412.222 521.5,411.5 Z"/></g>
<g><path style="opacity:1" fill="#a66a89" d="M 527.5,416.5 C 529.754,417.124 531.421,418.457 532.5,420.5C 488.87,422.652 445.204,424.319 401.5,425.5C 402.263,423.632 403.263,421.965 404.5,420.5C 445.355,420.071 486.355,418.737 527.5,416.5 Z"/></g>
<g><path style="opacity:1" fill="#af6a80" d="M 532.5,420.5 C 535.81,422.482 538.81,424.815 541.5,427.5C 493.902,429.745 446.236,431.745 398.5,433.5C 399.5,430.833 400.5,428.167 401.5,425.5C 445.204,424.319 488.87,422.652 532.5,420.5 Z"/></g>
<g><path style="opacity:1" fill="#b76978" d="M 541.5,427.5 C 543.858,429.529 546.192,431.529 548.5,433.5C 497.492,435.372 446.492,437.372 395.5,439.5C 396.514,437.426 397.514,435.426 398.5,433.5C 446.236,431.745 493.902,429.745 541.5,427.5 Z"/></g>
<g><path style="opacity:1" fill="#bf6971" d="M 548.5,433.5 C 552.146,435.817 555.48,438.484 558.5,441.5C 543.482,441.937 528.482,442.603 513.5,443.5C 510.492,441.34 507.325,439.34 504,437.5C 502.401,438.071 501.234,439.071 500.5,440.5C 498.696,439.838 496.696,439.505 494.5,439.5C 460.844,441.115 427.177,442.448 393.5,443.5C 394.167,442.167 394.833,440.833 395.5,439.5C 446.492,437.372 497.492,435.372 548.5,433.5 Z"/></g>
<g><path style="opacity:1" fill="#c4696c" d="M 500.5,440.5 C 500.737,441.791 500.404,442.791 499.5,443.5C 463.849,445.166 428.182,446.499 392.5,447.5C 392.833,446.167 393.167,444.833 393.5,443.5C 427.177,442.448 460.844,441.115 494.5,439.5C 496.696,439.505 498.696,439.838 500.5,440.5 Z"/></g>
<g><path style="opacity:1" fill="#cb6867" d="M 499.5,443.5 C 499.204,445.403 498.537,447.07 497.5,448.5C 461.512,450.089 425.512,451.423 389.5,452.5C 390.263,450.632 391.263,448.965 392.5,447.5C 428.182,446.499 463.849,445.166 499.5,443.5 Z"/></g>
<g><path style="opacity:1" fill="#d16860" d="M 497.5,448.5 C 497.371,450.216 497.038,451.883 496.5,453.5C 496.167,453.5 495.833,453.5 495.5,453.5C 459.753,454.157 423.753,455.491 387.5,457.5C 388.441,455.95 389.107,454.284 389.5,452.5C 425.512,451.423 461.512,450.089 497.5,448.5 Z"/></g>
<g><path style="opacity:1" fill="#d7685b" d="M 495.5,453.5 C 495.567,454.959 495.234,456.292 494.5,457.5C 458.154,458.552 421.821,459.885 385.5,461.5C 386.167,460.167 386.833,458.833 387.5,457.5C 423.753,455.491 459.753,454.157 495.5,453.5 Z"/></g>
<g><path style="opacity:1" fill="#dd6755" d="M 494.5,457.5 C 494.011,458.995 493.345,460.329 492.5,461.5C 456.5,462.833 420.5,464.167 384.5,465.5C 384.433,464.041 384.766,462.708 385.5,461.5C 421.821,459.885 458.154,458.552 494.5,457.5 Z"/></g>
<g><path style="opacity:1" fill="#e7664d" d="M 492.5,461.5 C 491.071,467.129 489.071,472.463 486.5,477.5C 449.732,478.298 413.065,479.965 376.5,482.5C 378.411,476.413 381.077,470.747 384.5,465.5C 420.5,464.167 456.5,462.833 492.5,461.5 Z"/></g>
<g><path style="opacity:0.992" fill="#f9f0f1" d="M 447.5,322.5 C 448.167,322.833 448.833,323.167 449.5,323.5C 450.888,331.94 452.721,340.273 455,348.5C 467.196,361.03 479.696,373.196 492.5,385C 515.983,404.573 539.65,423.906 563.5,443C 570.137,448.711 572.304,455.877 570,464.5C 568.877,467.249 567.377,469.749 565.5,472C 545.591,477.929 525.258,480.929 504.5,481C 499.466,477.073 497.466,471.907 498.5,465.5C 497.923,455.476 502.256,448.643 511.5,445C 509.093,442.715 506.593,440.549 504,438.5C 501.467,444.226 498.967,449.893 496.5,455.5C 496.5,454.833 496.5,454.167 496.5,453.5C 497.038,451.883 497.371,450.216 497.5,448.5C 498.537,447.07 499.204,445.403 499.5,443.5C 500.404,442.791 500.737,441.791 500.5,440.5C 501.234,439.071 502.401,438.071 504,437.5C 507.325,439.34 510.492,441.34 513.5,443.5C 513.67,444.822 513.337,445.989 512.5,447C 508.8,447.843 505.8,449.676 503.5,452.5C 501.195,455.407 499.862,458.741 499.5,462.5C 497.864,470.045 500.197,475.878 506.5,480C 524.704,478.855 542.704,476.189 560.5,472C 565.613,470.962 568.28,467.795 568.5,462.5C 569.823,458.402 569.489,454.402 567.5,450.5C 565.522,446.522 562.522,443.522 558.5,441.5C 555.48,438.484 552.146,435.817 548.5,433.5C 546.192,431.529 543.858,429.529 541.5,427.5C 538.81,424.815 535.81,422.482 532.5,420.5C 531.421,418.457 529.754,417.124 527.5,416.5C 525.909,414.367 523.909,412.701 521.5,411.5C 520.738,409.738 519.404,408.738 517.5,408.5C 514.208,405.51 510.874,402.51 507.5,399.5C 505.833,398.167 504.167,396.833 502.5,395.5C 500.525,393.863 498.525,392.196 496.5,390.5C 493.5,387.833 490.5,385.167 487.5,382.5C 485.12,379.119 482.12,376.453 478.5,374.5C 475.833,371.167 472.833,368.167 469.5,365.5C 467.167,362.5 464.5,359.833 461.5,357.5C 459.431,354.427 456.764,352.094 453.5,350.5C 452.615,346.712 451.615,343.046 450.5,339.5C 450.218,335.426 449.552,331.426 448.5,327.5C 448.371,325.784 448.038,324.117 447.5,322.5 Z"/></g>
<g><path style="opacity:1" fill="#e7664e" d="M 568.5,462.5 C 568.28,467.795 565.613,470.962 560.5,472C 542.704,476.189 524.704,478.855 506.5,480C 500.197,475.878 497.864,470.045 499.5,462.5C 500.766,461.91 502.099,461.41 503.5,461C 525.171,460.179 546.837,459.346 568.5,458.5C 568.5,459.833 568.5,461.167 568.5,462.5 Z"/></g>
<g><path style="opacity:1" fill="#dc6858" d="M 567.5,450.5 C 569.489,454.402 569.823,458.402 568.5,462.5C 568.5,461.167 568.5,459.833 568.5,458.5C 546.837,459.346 525.171,460.179 503.5,461C 502.099,461.41 500.766,461.91 499.5,462.5C 499.862,458.741 501.195,455.407 503.5,452.5C 524.83,451.731 546.163,451.064 567.5,450.5 Z"/></g>
<g><path style="opacity:1" fill="#cf6963" d="M 558.5,441.5 C 562.522,443.522 565.522,446.522 567.5,450.5C 546.163,451.064 524.83,451.731 503.5,452.5C 505.8,449.676 508.8,447.843 512.5,447C 513.337,445.989 513.67,444.822 513.5,443.5C 528.482,442.603 543.482,441.937 558.5,441.5 Z"/></g>
<g><path style="opacity:1" fill="#e8604c" d="M 486.5,477.5 C 484.933,483.879 482.6,489.879 479.5,495.5C 442.488,496.552 405.488,497.885 368.5,499.5C 371.182,493.76 373.849,488.094 376.5,482.5C 413.065,479.965 449.732,478.298 486.5,477.5 Z"/></g>
<g><path style="opacity:1" fill="#e85a4c" d="M 479.5,495.5 C 477.975,502.201 475.642,508.534 472.5,514.5C 468.849,513.835 465.015,513.501 461,513.5C 427.493,514.769 393.993,516.103 360.5,517.5C 363.36,511.588 366.026,505.588 368.5,499.5C 405.488,497.885 442.488,496.552 479.5,495.5 Z"/></g>
<g><path style="opacity:1" fill="#e8544c" d="M 472.5,514.5 C 470.896,520.311 468.896,525.978 466.5,531.5C 428.82,532.501 391.153,533.834 353.5,535.5C 355.275,529.284 357.608,523.284 360.5,517.5C 393.993,516.103 427.493,514.769 461,513.5C 465.015,513.501 468.849,513.835 472.5,514.5 Z"/></g>
<g><path style="opacity:1" fill="#e84e4c" d="M 466.5,531.5 C 464.069,538.678 461.402,545.678 458.5,552.5C 424.159,553.359 389.825,554.526 355.5,556C 353.155,556.236 351.155,557.07 349.5,558.5C 350.754,550.789 352.087,543.122 353.5,535.5C 391.153,533.834 428.82,532.501 466.5,531.5 Z"/></g>
<g><path style="opacity:1" fill="#e8474c" d="M 458.5,552.5 C 456.686,558.78 454.352,564.78 451.5,570.5C 416.832,571.449 382.165,572.449 347.5,573.5C 347.842,568.452 348.508,563.452 349.5,558.5C 351.155,557.07 353.155,556.236 355.5,556C 389.825,554.526 424.159,553.359 458.5,552.5 Z"/></g>
<g><path style="opacity:1" fill="#e8404c" d="M 451.5,570.5 C 449.47,577.423 447.137,584.257 444.5,591C 445.694,595.806 446.694,600.64 447.5,605.5C 432.482,605.937 417.482,606.603 402.5,607.5C 399.911,598.069 397.744,588.403 396,578.5C 394.667,577.167 393.333,577.167 392,578.5C 390.463,588.175 388.963,597.842 387.5,607.5C 372.177,608.32 356.844,608.987 341.5,609.5C 343.069,597.418 345.069,585.418 347.5,573.5C 382.165,572.449 416.832,571.449 451.5,570.5 Z"/></g>
<g><path style="opacity:0.984" fill="#fbedf0" d="M 413.5,309.5 C 413.833,309.5 414.167,309.5 414.5,309.5C 414.5,310.167 414.833,310.5 415.5,310.5C 415.216,312.415 415.549,314.081 416.5,315.5C 416.216,317.415 416.549,319.081 417.5,320.5C 417.216,322.415 417.549,324.081 418.5,325.5C 418.205,327.735 418.539,329.735 419.5,331.5C 419.751,335.249 420.417,338.915 421.5,342.5C 422.167,345.5 422.833,348.5 423.5,351.5C 423.575,354.206 423.908,356.873 424.5,359.5C 425.271,362.454 425.938,365.454 426.5,368.5C 426.122,370.921 425.455,373.254 424.5,375.5C 422.597,378.979 420.93,382.646 419.5,386.5C 418.264,388.649 417.264,390.982 416.5,393.5C 415.326,394.514 414.66,395.847 414.5,397.5C 413.463,398.93 412.796,400.597 412.5,402.5C 410.375,405.088 409.042,408.088 408.5,411.5C 407.326,412.514 406.66,413.847 406.5,415.5C 405.069,416.78 404.402,418.447 404.5,420.5C 403.263,421.965 402.263,423.632 401.5,425.5C 400.5,428.167 399.5,430.833 398.5,433.5C 397.514,435.426 396.514,437.426 395.5,439.5C 394.833,440.833 394.167,442.167 393.5,443.5C 393.167,444.833 392.833,446.167 392.5,447.5C 391.263,448.965 390.263,450.632 389.5,452.5C 389.107,454.284 388.441,455.95 387.5,457.5C 386.833,458.833 386.167,460.167 385.5,461.5C 384.766,462.708 384.433,464.041 384.5,465.5C 381.077,470.747 378.411,476.413 376.5,482.5C 373.849,488.094 371.182,493.76 368.5,499.5C 366.026,505.588 363.36,511.588 360.5,517.5C 357.608,523.284 355.275,529.284 353.5,535.5C 352.087,543.122 350.754,550.789 349.5,558.5C 348.508,563.452 347.842,568.452 347.5,573.5C 345.069,585.418 343.069,597.418 341.5,609.5C 339.024,622.411 337.024,635.411 335.5,648.5C 333.176,660.108 331.176,671.775 329.5,683.5C 327.714,691.746 327.214,700.079 328,708.5C 332.836,718.676 341.002,723.343 352.5,722.5C 358.71,722.559 363.71,720.226 367.5,715.5C 368.167,715.5 368.833,715.5 369.5,715.5C 365.166,720.836 359.499,723.836 352.5,724.5C 343.129,724.546 335.295,721.212 329,714.5C 325.791,708.886 324.791,702.886 326,696.5C 334.892,640.815 343.892,585.148 353,529.5C 377.215,477.07 400.882,424.404 424,371.5C 424.667,369.167 424.667,366.833 424,364.5C 420.433,346.167 416.933,327.833 413.5,309.5 Z"/></g>
<g><path style="opacity:1" fill="#e8324d" d="M 387.5,607.5 C 385.396,621.665 383.063,635.665 380.5,649.5C 380.5,648.5 380.5,647.5 380.5,646.5C 365.422,646.733 350.422,647.4 335.5,648.5C 337.024,635.411 339.024,622.411 341.5,609.5C 356.844,608.987 372.177,608.32 387.5,607.5 Z"/></g>
<g><path style="opacity:1" fill="#e8264c" d="M 380.5,649.5 C 379.323,660.255 377.656,670.922 375.5,681.5C 360.214,682.575 344.881,683.242 329.5,683.5C 331.176,671.775 333.176,660.108 335.5,648.5C 350.422,647.4 365.422,646.733 380.5,646.5C 380.5,647.5 380.5,648.5 380.5,649.5 Z"/></g>
<g><path style="opacity:1" fill="#e81d4d" d="M 375.5,681.5 C 374.543,690.91 373.043,700.244 371,709.5C 370.074,711.692 368.907,713.692 367.5,715.5C 363.71,720.226 358.71,722.559 352.5,722.5C 341.002,723.343 332.836,718.676 328,708.5C 327.214,700.079 327.714,691.746 329.5,683.5C 344.881,683.242 360.214,682.575 375.5,681.5 Z"/></g>
<g><path style="opacity:0.984" fill="#fde8ea" d="M 495.5,453.5 C 495.833,453.5 496.167,453.5 496.5,453.5C 496.5,454.167 496.5,454.833 496.5,455.5C 479.841,500.822 463.174,546.155 446.5,591.5C 454.474,632.87 462.641,674.203 471,715.5C 472.692,733.981 464.192,743.648 445.5,744.5C 434.217,743.382 427.051,737.382 424,726.5C 414.369,677.344 404.369,628.344 394,579.5C 386.784,622.127 379.784,664.793 373,707.5C 372.632,710.565 371.465,713.232 369.5,715.5C 368.833,715.5 368.167,715.5 367.5,715.5C 368.907,713.692 370.074,711.692 371,709.5C 373.043,700.244 374.543,690.91 375.5,681.5C 377.656,670.922 379.323,660.255 380.5,649.5C 383.063,635.665 385.396,621.665 387.5,607.5C 388.963,597.842 390.463,588.175 392,578.5C 393.333,577.167 394.667,577.167 396,578.5C 397.744,588.403 399.911,598.069 402.5,607.5C 404.578,620.22 406.911,632.887 409.5,645.5C 411.961,657.14 414.295,668.806 416.5,680.5C 419.346,696.551 422.512,712.551 426,728.5C 429.602,737.216 436.102,741.883 445.5,742.5C 460.555,742.111 468.888,734.444 470.5,719.5C 467.618,706.205 464.951,692.872 462.5,679.5C 459.941,667.362 457.275,655.362 454.5,643.5C 452.422,630.776 450.088,618.109 447.5,605.5C 446.694,600.64 445.694,595.806 444.5,591C 447.137,584.257 449.47,577.423 451.5,570.5C 454.352,564.78 456.686,558.78 458.5,552.5C 461.402,545.678 464.069,538.678 466.5,531.5C 468.896,525.978 470.896,520.311 472.5,514.5C 475.642,508.534 477.975,502.201 479.5,495.5C 482.6,489.879 484.933,483.879 486.5,477.5C 489.071,472.463 491.071,467.129 492.5,461.5C 493.345,460.329 494.011,458.995 494.5,457.5C 495.234,456.292 495.567,454.959 495.5,453.5 Z"/></g>
<g><path style="opacity:1" fill="#e81d4d" d="M 462.5,679.5 C 464.951,692.872 467.618,706.205 470.5,719.5C 468.888,734.444 460.555,742.111 445.5,742.5C 436.102,741.883 429.602,737.216 426,728.5C 422.512,712.551 419.346,696.551 416.5,680.5C 430.006,679.974 443.506,679.307 457,678.5C 458.924,678.581 460.757,678.914 462.5,679.5 Z"/></g>
<g><path style="opacity:1" fill="#e8254c" d="M 454.5,643.5 C 457.275,655.362 459.941,667.362 462.5,679.5C 460.757,678.914 458.924,678.581 457,678.5C 443.506,679.307 430.006,679.974 416.5,680.5C 414.295,668.806 411.961,657.14 409.5,645.5C 424.487,644.654 439.487,643.988 454.5,643.5 Z"/></g>
<g><path style="opacity:1" fill="#e8324c" d="M 447.5,605.5 C 450.088,618.109 452.422,630.776 454.5,643.5C 439.487,643.988 424.487,644.654 409.5,645.5C 406.911,632.887 404.578,620.22 402.5,607.5C 417.482,606.603 432.482,605.937 447.5,605.5 Z"/></g>
</svg>
