<?xml version="1.0" encoding="UTF-8"?>
<!DOCTYPE svg PUBLIC "-//W3C//DTD SVG 1.1//EN" "http://www.w3.org/Graphics/SVG/1.1/DTD/svg11.dtd">
<svg xmlns="http://www.w3.org/2000/svg" version="1.1" width="1280px" height="800px" style="shape-rendering:geometricPrecision; text-rendering:geometricPrecision; image-rendering:optimizeQuality; fill-rule:evenodd; clip-rule:evenodd" xmlns:xlink="http://www.w3.org/1999/xlink">
<g><path style="opacity:0.81" fill="#e86606" d="M 731.5,108.5 C 730.167,108.5 728.833,108.5 727.5,108.5C 718.683,83.9295 702.017,76.4295 677.5,86C 672.992,89.342 668.992,93.1754 665.5,97.5C 651.933,80.1926 635.6,77.0259 616.5,88C 609.829,93.4741 605.495,100.307 603.5,108.5C 602.167,108.5 600.833,108.5 599.5,108.5C 602.166,93.3265 610.832,83.1598 625.5,78C 641.154,74.0909 654.487,77.9242 665.5,89.5C 681.368,74.4542 698.702,72.6209 717.5,84C 725.681,90.2 730.348,98.3666 731.5,108.5 Z"/></g>
<g><path style="opacity:0.801" fill="#e86642" d="M 599.5,108.5 C 600.833,108.5 602.167,108.5 603.5,108.5C 603.342,111.902 603.676,115.236 604.5,118.5C 602.833,118.5 601.167,118.5 599.5,118.5C 598.253,115.133 598.253,111.799 599.5,108.5 Z"/></g>
<g><path style="opacity:0.801" fill="#e86642" d="M 727.5,108.5 C 728.833,108.5 730.167,108.5 731.5,108.5C 732.747,111.799 732.747,115.133 731.5,118.5C 729.833,118.5 728.167,118.5 726.5,118.5C 727.324,115.236 727.658,111.902 727.5,108.5 Z"/></g>
<g><path style="opacity:0.847" fill="#e8384c" d="M 599.5,118.5 C 601.167,118.5 602.833,118.5 604.5,118.5C 606.286,124.072 608.619,129.405 611.5,134.5C 609.833,134.5 608.167,134.5 606.5,134.5C 603.117,129.724 600.784,124.39 599.5,118.5 Z"/></g>
<g><path style="opacity:0.777" fill="#e8374c" d="M 726.5,118.5 C 728.167,118.5 729.833,118.5 731.5,118.5C 730.228,124.371 727.894,129.704 724.5,134.5C 722.833,134.5 721.167,134.5 719.5,134.5C 722.366,129.431 724.699,124.098 726.5,118.5 Z"/></g>
<g><path style="opacity:0.826" fill="#e81955" d="M 606.5,134.5 C 608.167,134.5 609.833,134.5 611.5,134.5C 613.833,137.833 616.167,141.167 618.5,144.5C 616.5,144.5 614.5,144.5 612.5,144.5C 609.986,141.47 607.986,138.137 606.5,134.5 Z"/></g>
<g><path style="opacity:0.826" fill="#e81955" d="M 719.5,134.5 C 721.167,134.5 722.833,134.5 724.5,134.5C 723.014,138.137 721.014,141.47 718.5,144.5C 716.5,144.5 714.5,144.5 712.5,144.5C 714.846,141.129 717.179,137.796 719.5,134.5 Z"/></g>
<g><path style="opacity:0.748" fill="#e7186b" d="M 612.5,144.5 C 614.5,144.5 616.5,144.5 618.5,144.5C 621.516,147.52 624.183,150.854 626.5,154.5C 624.5,154.5 622.5,154.5 620.5,154.5C 617.833,151.167 615.167,147.833 612.5,144.5 Z"/></g>
<g><path style="opacity:0.745" fill="#e7186b" d="M 712.5,144.5 C 714.5,144.5 716.5,144.5 718.5,144.5C 715.833,147.833 713.167,151.167 710.5,154.5C 708.5,154.5 706.5,154.5 704.5,154.5C 706.817,150.854 709.484,147.52 712.5,144.5 Z"/></g>
<g><path style="opacity:0.876" fill="#c7188a" d="M 620.5,154.5 C 622.5,154.5 624.5,154.5 626.5,154.5C 628.262,155.262 629.262,156.596 629.5,158.5C 627.833,158.5 626.167,158.5 624.5,158.5C 622.833,157.5 621.5,156.167 620.5,154.5 Z"/></g>
<g><path style="opacity:0.876" fill="#c7188a" d="M 704.5,154.5 C 706.5,154.5 708.5,154.5 710.5,154.5C 709.5,156.167 708.167,157.5 706.5,158.5C 704.833,158.5 703.167,158.5 701.5,158.5C 701.738,156.596 702.738,155.262 704.5,154.5 Z"/></g>
<g><path style="opacity:0.876" fill="#9f17a6" d="M 624.5,158.5 C 626.167,158.5 627.833,158.5 629.5,158.5C 631.262,159.262 632.262,160.596 632.5,162.5C 630.833,162.5 629.167,162.5 627.5,162.5C 625.738,161.738 624.738,160.404 624.5,158.5 Z"/></g>
<g><path style="opacity:0.876" fill="#9f17a6" d="M 701.5,158.5 C 703.167,158.5 704.833,158.5 706.5,158.5C 706.262,160.404 705.262,161.738 703.5,162.5C 701.833,162.5 700.167,162.5 698.5,162.5C 698.738,160.596 699.738,159.262 701.5,158.5 Z"/></g>
<g><path style="opacity:0.751" fill="#4225ee" d="M 627.5,162.5 C 629.167,162.5 630.833,162.5 632.5,162.5C 637.966,168.091 642.966,174.091 647.5,180.5C 645.5,180.5 643.5,180.5 641.5,180.5C 636.458,174.792 631.791,168.792 627.5,162.5 Z"/></g>
<g><path style="opacity:0.751" fill="#4225ee" d="M 698.5,162.5 C 700.167,162.5 701.833,162.5 703.5,162.5C 699.209,168.792 694.542,174.792 689.5,180.5C 687.5,180.5 685.5,180.5 683.5,180.5C 688.034,174.091 693.034,168.091 698.5,162.5 Z"/></g>
<g><path style="opacity:0.751" fill="#2764fe" d="M 641.5,180.5 C 643.5,180.5 645.5,180.5 647.5,180.5C 649.885,182.884 651.885,185.55 653.5,188.5C 651.5,188.5 649.5,188.5 647.5,188.5C 645.147,186.14 643.147,183.473 641.5,180.5 Z"/></g>
<g><path style="opacity:0.742" fill="#2764fe" d="M 683.5,180.5 C 685.5,180.5 687.5,180.5 689.5,180.5C 687.853,183.473 685.853,186.14 683.5,188.5C 681.5,188.5 679.5,188.5 677.5,188.5C 679.115,185.55 681.115,182.884 683.5,180.5 Z"/></g>
<g><path style="opacity:0.865" fill="#2685ff" d="M 647.5,188.5 C 649.5,188.5 651.5,188.5 653.5,188.5C 654.974,189.436 655.974,190.77 656.5,192.5C 654.5,192.5 652.5,192.5 650.5,192.5C 649.5,191.167 648.5,189.833 647.5,188.5 Z"/></g>
<g><path style="opacity:0.865" fill="#2685ff" d="M 677.5,188.5 C 679.5,188.5 681.5,188.5 683.5,188.5C 682.5,189.833 681.5,191.167 680.5,192.5C 678.5,192.5 676.5,192.5 674.5,192.5C 675.026,190.77 676.026,189.436 677.5,188.5 Z"/></g>
<g><path style="opacity:0.876" fill="#27a3ff" d="M 650.5,192.5 C 652.5,192.5 654.5,192.5 656.5,192.5C 657.974,193.436 658.974,194.77 659.5,196.5C 657.833,196.5 656.167,196.5 654.5,196.5C 652.833,195.5 651.5,194.167 650.5,192.5 Z"/></g>
<g><path style="opacity:0.876" fill="#27a3ff" d="M 674.5,192.5 C 676.5,192.5 678.5,192.5 680.5,192.5C 679.5,194.167 678.167,195.5 676.5,196.5C 674.833,196.5 673.167,196.5 671.5,196.5C 671.738,194.596 672.738,193.262 674.5,192.5 Z"/></g>
<g><path style="opacity:0.953" fill="#29cbff" d="M 654.5,196.5 C 656.167,196.5 657.833,196.5 659.5,196.5C 661.21,198.2 663.21,199.533 665.5,200.5C 667.79,199.533 669.79,198.2 671.5,196.5C 673.167,196.5 674.833,196.5 676.5,196.5C 675.92,198.749 674.587,200.415 672.5,201.5C 667.833,201.5 663.167,201.5 658.5,201.5C 656.413,200.415 655.08,198.749 654.5,196.5 Z"/></g>
<g><path style="opacity:0.876" fill="#29e4ff" d="M 658.5,201.5 C 663.167,201.5 667.833,201.5 672.5,201.5C 670.944,203.988 668.611,204.988 665.5,204.5C 662.389,204.988 660.056,203.988 658.5,201.5 Z"/></g>
<g><path style="opacity:0.594" fill="#f3fdff" d="M 699.5,308.5 C 698.833,308.167 698.167,307.833 697.5,307.5C 697.5,307.167 697.5,306.833 697.5,306.5C 697.483,304.435 697.15,302.435 696.5,300.5C 696.567,299.041 696.234,297.708 695.5,296.5C 694.962,294.883 694.629,293.216 694.5,291.5C 694.167,290.167 693.833,288.833 693.5,287.5C 689.991,268.124 686.158,248.79 682,229.5C 679.66,224.381 675.66,222.048 670,222.5C 661.971,222.863 657.471,227.03 656.5,235C 659.998,252.994 663.665,270.827 667.5,288.5C 667.216,290.415 667.549,292.081 668.5,293.5C 668.216,295.415 668.549,297.081 669.5,298.5C 669.216,300.415 669.549,302.081 670.5,303.5C 670.216,305.415 670.549,307.081 671.5,308.5C 671.216,310.415 671.549,312.081 672.5,313.5C 672.216,315.415 672.549,317.081 673.5,318.5C 673.216,320.415 673.549,322.081 674.5,323.5C 674.325,325.621 674.659,327.621 675.5,329.5C 675.629,331.216 675.962,332.883 676.5,334.5C 675.833,334.167 675.167,333.833 674.5,333.5C 668.272,302.192 662.105,270.859 656,239.5C 654.273,227.89 659.273,221.557 671,220.5C 677.364,221.197 681.697,224.531 684,230.5C 689.235,256.507 694.402,282.507 699.5,308.5 Z"/></g>
<g><path style="opacity:1" fill="#84fefe" d="M 693.5,287.5 C 684.815,287.464 676.149,287.797 667.5,288.5C 663.665,270.827 659.998,252.994 656.5,235C 657.471,227.03 661.971,222.863 670,222.5C 675.66,222.048 679.66,224.381 682,229.5C 686.158,248.79 689.991,268.124 693.5,287.5 Z"/></g>
<g><path style="opacity:0.959" fill="#000000" d="M 522.5,231.5 C 541.421,228.588 549.588,236.588 547,255.5C 545.109,265.95 543.109,276.284 541,286.5C 550.086,272.66 559.419,258.993 569,245.5C 579.462,232.261 592.628,228.427 608.5,234C 614.358,238.054 617.025,243.721 616.5,251C 616.127,258.404 614.627,265.571 612,272.5C 596.667,307.167 581.333,341.833 566,376.5C 560.469,392.76 555.136,409.094 550,425.5C 546.39,436.057 541.223,445.724 534.5,454.5C 526.511,460.549 518.178,461.049 509.5,456C 507.951,454.786 506.785,453.286 506,451.5C 505.333,447.167 505.333,442.833 506,438.5C 513.064,419.707 521.73,401.707 532,384.5C 540.472,364.085 549.138,343.751 558,323.5C 559.314,320.911 559.981,318.244 560,315.5C 541.606,342.897 523.606,370.564 506,398.5C 502.419,402.752 498.252,406.252 493.5,409C 475.927,410.758 468.76,402.925 472,385.5C 472.667,382.167 473.333,378.833 474,375.5C 477.768,364.867 481.102,354.201 484,343.5C 465.667,378.833 447.333,414.167 429,449.5C 425.526,455.273 421.026,460.107 415.5,464C 400.777,470.222 394.277,465.388 396,449.5C 399.283,437.932 403.949,426.932 410,416.5C 440.35,363.139 469.683,309.139 498,254.5C 503.819,244.176 511.986,236.51 522.5,231.5 Z M 524.5,234.5 C 525.833,234.5 527.167,234.5 528.5,234.5C 528.269,237.9 526.436,239.9 523,240.5C 522.25,239.874 521.416,239.374 520.5,239C 522.041,237.629 523.375,236.129 524.5,234.5 Z M 591.5,234.5 C 595.04,234.194 596.374,235.527 595.5,238.5C 593.235,239.647 590.902,239.814 588.5,239C 587.549,238.282 587.383,237.449 588,236.5C 589.302,235.915 590.469,235.249 591.5,234.5 Z M 531.5,236.5 C 538.676,236.506 542.509,240.173 543,247.5C 543.937,256.21 542.604,264.543 539,272.5C 538.667,266.5 538.333,260.5 538,254.5C 535.36,249.698 532.527,245.032 529.5,240.5C 529.752,238.927 530.418,237.594 531.5,236.5 Z M 599.5,236.5 C 608.069,237.078 612.069,241.745 611.5,250.5C 610.103,261.087 607.603,271.421 604,281.5C 603.313,283.555 602.146,285.221 600.5,286.5C 600.167,285.833 599.833,285.167 599.5,284.5C 602.139,276.231 604.472,267.898 606.5,259.5C 604.72,252.439 601.72,245.939 597.5,240C 597.978,238.697 598.645,237.531 599.5,236.5 Z M 536.5,283.5 C 536.612,287.288 536.779,291.288 537,295.5C 538.491,297.004 540.324,297.837 542.5,298C 538.096,303.02 534.429,302.52 531.5,296.5C 532.896,292.045 534.563,287.711 536.5,283.5 Z M 515.5,365.5 C 516.833,365.5 518.167,365.5 519.5,365.5C 519.736,368.226 518.903,370.559 517,372.5C 515.045,373.453 513.378,374.787 512,376.5C 510.56,375.07 510.226,373.403 511,371.5C 512.332,369.34 513.832,367.34 515.5,365.5 Z M 507.5,382.5 C 508.552,382.351 509.552,382.517 510.5,383C 506.99,390.51 501.99,396.843 495.5,402C 489.859,405.716 484.692,405.216 480,400.5C 479.376,398.536 479.876,396.869 481.5,395.5C 486.213,395.348 490.879,394.848 495.5,394C 499.395,389.935 503.395,386.102 507.5,382.5 Z M 543.5,414.5 C 544.833,414.5 546.167,414.5 547.5,414.5C 547.731,418.813 546.398,422.479 543.5,425.5C 542.304,424.441 541.637,423.107 541.5,421.5C 542.173,419.149 542.84,416.816 543.5,414.5 Z M 541.5,430.5 C 542.472,433.52 541.972,436.52 540,439.5C 536.067,445.434 530.9,449.934 524.5,453C 517.833,454.667 515.833,452.333 518.5,446C 522.668,445.625 526.668,444.625 530.5,443C 534.057,438.708 537.723,434.541 541.5,430.5 Z M 426.5,446.5 C 426.262,448.404 425.262,449.738 423.5,450.5C 423.738,448.596 424.738,447.262 426.5,446.5 Z M 423.5,450.5 C 419.079,458.375 412.413,462.042 403.5,461.5C 402.141,459.694 402.475,458.194 404.5,457C 411.683,457.009 418.017,454.843 423.5,450.5 Z"/></g>
<g><path style="opacity:1" fill="#7df2ff" d="M 693.5,287.5 C 693.833,288.833 694.167,290.167 694.5,291.5C 685.628,291.419 676.961,292.085 668.5,293.5C 667.549,292.081 667.216,290.415 667.5,288.5C 676.149,287.797 684.815,287.464 693.5,287.5 Z"/></g>
<g><path style="opacity:1" fill="#75e6ff" d="M 694.5,291.5 C 694.629,293.216 694.962,294.883 695.5,296.5C 686.435,295.864 677.769,296.53 669.5,298.5C 668.549,297.081 668.216,295.415 668.5,293.5C 676.961,292.085 685.628,291.419 694.5,291.5 Z"/></g>
<g><path style="opacity:1" fill="#6ddaff" d="M 695.5,296.5 C 696.234,297.708 696.567,299.041 696.5,300.5C 690.158,300.334 683.825,300.5 677.5,301C 674.639,300.97 672.305,301.803 670.5,303.5C 669.549,302.081 669.216,300.415 669.5,298.5C 677.769,296.53 686.435,295.864 695.5,296.5 Z"/></g>
<g><path style="opacity:1" fill="#65cdff" d="M 696.5,300.5 C 697.15,302.435 697.483,304.435 697.5,306.5C 696.739,305.609 695.739,304.942 694.5,304.5C 686.87,305.435 679.203,305.768 671.5,305.5C 671.5,306.5 671.5,307.5 671.5,308.5C 670.549,307.081 670.216,305.415 670.5,303.5C 672.305,301.803 674.639,300.97 677.5,301C 683.825,300.5 690.158,300.334 696.5,300.5 Z"/></g>
<g><path style="opacity:1" fill="#59beff" d="M 697.5,306.5 C 697.5,306.833 697.5,307.167 697.5,307.5C 697.833,308.833 698.167,310.167 698.5,311.5C 690.493,311.334 682.493,311.5 674.5,312C 673.584,312.278 672.918,312.778 672.5,313.5C 671.549,312.081 671.216,310.415 671.5,308.5C 671.5,307.5 671.5,306.5 671.5,305.5C 679.203,305.768 686.87,305.435 694.5,304.5C 695.739,304.942 696.739,305.609 697.5,306.5 Z"/></g>
<g><path style="opacity:0.816" fill="#f0fdff" d="M 748.5,258.5 C 776.574,257.389 793.408,270.722 799,298.5C 803.12,322.475 796.287,342.641 778.5,359C 749.519,373.783 728.353,366.283 715,336.5C 707.202,311.15 712.035,288.65 729.5,269C 735.316,264.428 741.649,260.928 748.5,258.5 Z"/></g>
<g><path style="opacity:1" fill="#29d3ff" d="M 798.5,304.5 C 799.237,314.269 797.903,323.602 794.5,332.5C 779.113,355.565 758.78,361.065 733.5,349C 716.498,336.488 710.665,319.988 716,299.5C 725.565,277.132 742.398,267.965 766.5,272C 783.331,276.878 793.998,287.712 798.5,304.5 Z"/></g>
<g><path style="opacity:1" fill="#28cbff" d="M 750.5,273.5 C 773.761,272.54 788.594,283.206 795,305.5C 797.405,330.406 786.571,345.906 762.5,352C 737.532,353.432 722.365,341.932 717,317.5C 716.371,293.727 727.538,279.06 750.5,273.5 Z"/></g>
<g><path style="opacity:1" fill="#28c0ff" d="M 748.5,275.5 C 775.38,273.883 790.714,286.383 794.5,313C 790.755,339.745 775.422,352.078 748.5,350C 726.874,343.601 717.041,329.101 719,306.5C 722.607,290.064 732.44,279.73 748.5,275.5 Z"/></g>
<g><path style="opacity:1" fill="#27b4ff" d="M 748.5,278.5 C 773.561,276.691 787.894,288.191 791.5,313C 788.033,338.138 773.7,349.472 748.5,347C 728.532,340.919 719.699,327.419 722,306.5C 725.912,292.423 734.745,283.09 748.5,278.5 Z"/></g>
<g><path style="opacity:1" fill="#27a7ff" d="M 750.5,281.5 C 768.928,280.123 781.095,288.123 787,305.5C 788.99,332.51 776.49,345.343 749.5,344C 731.736,338.313 723.57,326.146 725,307.5C 728.348,293.653 736.848,284.986 750.5,281.5 Z"/></g>
<g><path style="opacity:1" fill="#269bff" d="M 750.5,284.5 C 766.968,283.148 778.135,290.148 784,305.5C 786.597,326.892 777.264,338.892 756,341.5C 736.244,339.407 726.91,328.407 728,308.5C 730.579,295.758 738.079,287.758 750.5,284.5 Z"/></g>
<g><path style="opacity:1" fill="#268eff" d="M 752.5,287.5 C 772.983,287.824 782.483,298.158 781,318.5C 776.513,332.973 766.68,339.473 751.5,338C 733.846,332.193 727.679,320.359 733,302.5C 737.28,294.461 743.78,289.461 752.5,287.5 Z"/></g>
<g><path style="opacity:1" fill="#2582ff" d="M 753.5,290.5 C 768.353,290.857 776.687,298.357 778.5,313C 775.751,330.374 765.751,337.374 748.5,334C 735.575,327.583 731.409,317.417 736,303.5C 740.021,296.635 745.855,292.302 753.5,290.5 Z"/></g>
<g><path style="opacity:1" fill="#2579ff" d="M 751.5,294.5 C 769.988,294.488 777.155,303.488 773,321.5C 767.105,331.41 758.605,334.243 747.5,330C 736.812,322.559 734.645,313.059 741,301.5C 743.998,298.262 747.498,295.929 751.5,294.5 Z"/></g>
<g><path style="opacity:1" fill="#2571ff" d="M 751.5,296.5 C 763.869,295.377 771.202,300.877 773.5,313C 770.222,328.438 761.222,333.105 746.5,327C 737.167,317.667 737.167,308.333 746.5,299C 748.315,298.243 749.981,297.41 751.5,296.5 Z"/></g>
<g><path style="opacity:1" fill="#30e6ff" d="M 789.5,279.5 C 792.535,282.902 794.535,286.902 795.5,291.5C 776.967,267.361 754.633,263.194 728.5,279C 723.896,283.102 719.896,287.602 716.5,292.5C 718.407,287.016 721.073,282.016 724.5,277.5C 746.656,262.274 768.323,262.941 789.5,279.5 Z"/></g>
<g><path style="opacity:1" fill="#38f5ff" d="M 789.5,279.5 C 768.323,262.941 746.656,262.274 724.5,277.5C 738.407,259.03 755.74,254.864 776.5,265C 782.118,268.779 786.451,273.613 789.5,279.5 Z"/></g>
<g><path style="opacity:1" fill="#50b0ff" d="M 698.5,311.5 C 698.629,313.216 698.962,314.883 699.5,316.5C 693.248,315.376 686.915,315.21 680.5,316C 677.639,315.97 675.305,316.803 673.5,318.5C 672.549,317.081 672.216,315.415 672.5,313.5C 672.918,312.778 673.584,312.278 674.5,312C 682.493,311.5 690.493,311.334 698.5,311.5 Z"/></g>
<g><path style="opacity:1" fill="#32deff" d="M 795.5,291.5 C 797.282,295.629 798.282,299.962 798.5,304.5C 793.998,287.712 783.331,276.878 766.5,272C 742.398,267.965 725.565,277.132 716,299.5C 710.665,319.988 716.498,336.488 733.5,349C 758.78,361.065 779.113,355.565 794.5,332.5C 794.06,335.38 793.06,338.046 791.5,340.5C 772.88,358.866 752.213,361.366 729.5,348C 722.332,341.687 716.999,334.187 713.5,325.5C 711.56,314.195 712.56,303.195 716.5,292.5C 719.896,287.602 723.896,283.102 728.5,279C 754.633,263.194 776.967,267.361 795.5,291.5 Z"/></g>
<g><path style="opacity:1" fill="#46a0ff" d="M 699.5,316.5 C 699.629,318.216 699.962,319.883 700.5,321.5C 691.642,321.608 682.975,322.275 674.5,323.5C 673.549,322.081 673.216,320.415 673.5,318.5C 675.305,316.803 677.639,315.97 680.5,316C 686.915,315.21 693.248,315.376 699.5,316.5 Z"/></g>
<g><path style="opacity:1" fill="#388cff" d="M 700.5,321.5 C 700.993,323.806 701.326,326.139 701.5,328.5C 692.838,328.928 684.171,329.262 675.5,329.5C 674.659,327.621 674.325,325.621 674.5,323.5C 682.975,322.275 691.642,321.608 700.5,321.5 Z"/></g>
<g><path style="opacity:1" fill="#2e73fa" d="M 701.5,328.5 C 703.135,333.344 704.135,338.344 704.5,343.5C 704.5,344.833 704.5,346.167 704.5,347.5C 696.167,347.5 687.833,347.5 679.5,347.5C 678.376,343.217 677.376,338.884 676.5,334.5C 675.962,332.883 675.629,331.216 675.5,329.5C 684.171,329.262 692.838,328.928 701.5,328.5 Z"/></g>
<g><path style="opacity:1" fill="#33e8ff" d="M 713.5,325.5 C 716.999,334.187 722.332,341.687 729.5,348C 752.213,361.366 772.88,358.866 791.5,340.5C 788.901,345.428 785.568,349.761 781.5,353.5C 760.305,363.419 740.639,361.086 722.5,346.5C 717.772,340.339 714.772,333.339 713.5,325.5 Z"/></g>
<g><path style="opacity:1" fill="#38f4ff" d="M 722.5,346.5 C 740.639,361.086 760.305,363.419 781.5,353.5C 772.301,363.249 760.967,367.083 747.5,365C 736.404,362.383 728.07,356.216 722.5,346.5 Z"/></g>
<g><path style="opacity:1" fill="#4970df" d="M 704.5,343.5 C 705.264,345.74 706.098,348.073 707,350.5C 710.704,354.036 714.204,357.702 717.5,361.5C 706,362.394 694.333,363.061 682.5,363.5C 680.945,358.288 679.945,352.955 679.5,347.5C 687.833,347.5 696.167,347.5 704.5,347.5C 704.5,346.167 704.5,344.833 704.5,343.5 Z"/></g>
<g><path style="opacity:1" fill="#5c6ecd" d="M 717.5,361.5 C 720.859,364.529 724.192,367.529 727.5,370.5C 713.514,371.921 699.347,372.921 685,373.5C 683.615,373.486 682.449,373.152 681.5,372.5C 682.299,369.57 682.632,366.57 682.5,363.5C 694.333,363.061 706,362.394 717.5,361.5 Z"/></g>
<g><path style="opacity:1" fill="#6b6dbf" d="M 727.5,370.5 C 730.833,373.167 733.833,376.167 736.5,379.5C 720.192,381.077 703.692,382.077 687,382.5C 683.648,382.498 680.482,382.165 677.5,381.5C 678.463,378.256 679.796,375.256 681.5,372.5C 682.449,373.152 683.615,373.486 685,373.5C 699.347,372.921 713.514,371.921 727.5,370.5 Z"/></g>
<g><path style="opacity:0.544" fill="#f4f2f7" d="M 697.5,307.5 C 698.167,307.833 698.833,308.167 699.5,308.5C 702.012,322.226 704.845,335.893 708,349.5C 721.167,362 734.333,374.5 747.5,387C 767.957,403.122 788.124,419.622 808,436.5C 810.604,441.753 811.104,447.087 809.5,452.5C 809.167,452.5 808.833,452.5 808.5,452.5C 808.5,451.833 808.5,451.167 808.5,450.5C 809.158,449.207 809.492,447.707 809.5,446C 809.664,443.456 808.997,441.29 807.5,439.5C 807.489,437.983 806.823,436.816 805.5,436C 803.266,434.25 800.932,432.75 798.5,431.5C 796.451,428.45 793.784,426.117 790.5,424.5C 788.909,422.367 786.909,420.701 784.5,419.5C 782.192,417.529 779.858,415.529 777.5,413.5C 774.48,410.484 771.146,407.817 767.5,405.5C 766.055,403.937 764.389,402.604 762.5,401.5C 759.859,399.196 757.192,396.862 754.5,394.5C 751.167,391.833 747.833,389.167 744.5,386.5C 741.859,384.196 739.192,381.862 736.5,379.5C 733.833,376.167 730.833,373.167 727.5,370.5C 724.192,367.529 720.859,364.529 717.5,361.5C 714.204,357.702 710.704,354.036 707,350.5C 706.098,348.073 705.264,345.74 704.5,343.5C 704.135,338.344 703.135,333.344 701.5,328.5C 701.326,326.139 700.993,323.806 700.5,321.5C 699.962,319.883 699.629,318.216 699.5,316.5C 698.962,314.883 698.629,313.216 698.5,311.5C 698.167,310.167 697.833,308.833 697.5,307.5 Z"/></g>
<g><path style="opacity:1" fill="#786db3" d="M 736.5,379.5 C 739.192,381.862 741.859,384.196 744.5,386.5C 742.031,387.317 739.365,387.817 736.5,388C 715.493,388.772 694.493,389.605 673.5,390.5C 674.463,387.256 675.796,384.256 677.5,381.5C 680.482,382.165 683.648,382.498 687,382.5C 703.692,382.077 720.192,381.077 736.5,379.5 Z"/></g>
<g><path style="opacity:1" fill="#846ca7" d="M 744.5,386.5 C 747.833,389.167 751.167,391.833 754.5,394.5C 729.18,396.252 703.68,397.585 678,398.5C 675.31,398.497 672.81,398.164 670.5,397.5C 670.707,394.759 671.707,392.426 673.5,390.5C 694.493,389.605 715.493,388.772 736.5,388C 739.365,387.817 742.031,387.317 744.5,386.5 Z"/></g>
<g><path style="opacity:1" fill="#916b9c" d="M 754.5,394.5 C 757.192,396.862 759.859,399.196 762.5,401.5C 735.355,403.443 708.022,404.776 680.5,405.5C 675.778,405.492 671.445,404.825 667.5,403.5C 667.992,401.181 668.992,399.181 670.5,397.5C 672.81,398.164 675.31,398.497 678,398.5C 703.68,397.585 729.18,396.252 754.5,394.5 Z"/></g>
<g><path style="opacity:1" fill="#996b94" d="M 762.5,401.5 C 764.389,402.604 766.055,403.937 767.5,405.5C 733.353,407.779 699.02,409.446 664.5,410.5C 664.935,407.843 665.935,405.509 667.5,403.5C 671.445,404.825 675.778,405.492 680.5,405.5C 708.022,404.776 735.355,403.443 762.5,401.5 Z"/></g>
<g><path style="opacity:1" fill="#a46a8a" d="M 767.5,405.5 C 771.146,407.817 774.48,410.484 777.5,413.5C 738.845,415.141 700.178,416.474 661.5,417.5C 661.707,414.759 662.707,412.426 664.5,410.5C 699.02,409.446 733.353,407.779 767.5,405.5 Z"/></g>
<g><path style="opacity:1" fill="#ad6a81" d="M 777.5,413.5 C 779.858,415.529 782.192,417.529 784.5,419.5C 742.526,421.511 700.526,423.178 658.5,424.5C 658.707,421.759 659.707,419.426 661.5,417.5C 700.178,416.474 738.845,415.141 777.5,413.5 Z"/></g>
<g><path style="opacity:1" fill="#b76978" d="M 784.5,419.5 C 786.909,420.701 788.909,422.367 790.5,424.5C 745.521,426.602 700.521,428.268 655.5,429.5C 656.263,427.632 657.263,425.965 658.5,424.5C 700.526,423.178 742.526,421.511 784.5,419.5 Z"/></g>
<g><path style="opacity:1" fill="#c16970" d="M 790.5,424.5 C 793.784,426.117 796.451,428.45 798.5,431.5C 785.847,432.269 773.18,432.935 760.5,433.5C 760.737,434.791 760.404,435.791 759.5,436.5C 759.649,435.448 759.483,434.448 759,433.5C 756.591,431.38 754.091,429.38 751.5,427.5C 749.311,429.01 747.977,431.01 747.5,433.5C 715.847,434.981 684.18,436.314 652.5,437.5C 653.501,434.828 654.501,432.162 655.5,429.5C 700.521,428.268 745.521,426.602 790.5,424.5 Z"/></g>
<g><path style="opacity:1" fill="#cf6963" d="M 798.5,431.5 C 800.932,432.75 803.266,434.25 805.5,436C 806.823,436.816 807.489,437.983 807.5,439.5C 788.841,440.339 770.174,441.006 751.5,441.5C 753.489,438.834 756.156,437.167 759.5,436.5C 760.404,435.791 760.737,434.791 760.5,433.5C 773.18,432.935 785.847,432.269 798.5,431.5 Z"/></g>
<g><path style="opacity:1" fill="#dc6958" d="M 807.5,439.5 C 808.997,441.29 809.664,443.456 809.5,446C 809.492,447.707 809.158,449.207 808.5,450.5C 808.5,449.5 808.5,448.5 808.5,447.5C 788.038,447.299 767.705,448.299 747.5,450.5C 748.042,447.088 749.375,444.088 751.5,441.5C 770.174,441.006 788.841,440.339 807.5,439.5 Z"/></g>
<g><path style="opacity:1" fill="#e7664d" d="M 808.5,450.5 C 808.5,451.167 808.5,451.833 808.5,452.5C 807.781,454.091 806.781,455.591 805.5,457C 801.608,458.64 797.608,459.973 793.5,461C 780.179,463.142 766.846,464.809 753.5,466C 748.706,462.043 746.706,456.876 747.5,450.5C 767.705,448.299 788.038,447.299 808.5,447.5C 808.5,448.5 808.5,449.5 808.5,450.5 Z"/></g>
<g><path style="opacity:0.931" fill="#000000" d="M 856.5,494.5 C 865.433,493.852 873.766,495.686 881.5,500C 887.755,506.585 890.255,514.418 889,523.5C 884.811,529.508 878.977,532.175 871.5,531.5C 869.241,531.468 867.075,531.134 865,530.5C 865.477,522.634 861.977,519.468 854.5,521C 840.497,529.664 828.33,540.497 818,553.5C 796.373,579.919 781.206,609.752 772.5,643C 772.987,649.483 776.487,652.317 783,651.5C 792.427,650.948 801.593,649.115 810.5,646C 815.995,644.336 819.662,640.836 821.5,635.5C 821.167,634.833 820.833,634.167 820.5,633.5C 813.976,631.84 807.309,631.007 800.5,631C 794.223,628.611 792.057,624.111 794,617.5C 795.587,614.244 798.087,612.077 801.5,611C 815.693,609.39 828.859,612.223 841,619.5C 844.65,624.087 845.317,629.087 843,634.5C 841.587,637.661 839.92,640.661 838,643.5C 829.03,653.47 819.697,663.137 810,672.5C 807.959,683.399 806.626,694.399 806,705.5C 802.886,719.995 794.553,723.995 781,717.5C 779.154,714.431 778.154,711.098 778,707.5C 778.131,697.074 778.798,686.74 780,676.5C 771.876,675.473 764.043,673.307 756.5,670C 753.238,667.408 750.738,664.241 749,660.5C 746.4,646.153 747.733,632.153 753,618.5C 769.831,574.36 795.998,536.86 831.5,506C 839.171,500.495 847.504,496.661 856.5,494.5 Z M 863.5,500.5 C 865.628,499.371 867.961,499.204 870.5,500C 881.097,503.907 885.93,511.407 885,522.5C 880.981,511.982 873.814,504.648 863.5,500.5 Z M 815.5,543.5 C 816.833,543.5 818.167,543.5 819.5,543.5C 819.5,546.833 817.833,548.5 814.5,548.5C 814.366,546.708 814.699,545.042 815.5,543.5 Z M 809.5,551.5 C 811.028,551.517 811.528,552.184 811,553.5C 798.446,569.263 788.446,586.597 781,605.5C 779.579,608.009 777.912,610.343 776,612.5C 774.368,610.293 774.368,607.96 776,605.5C 783.051,589.726 791.384,574.726 801,560.5C 803.362,556.973 806.196,553.973 809.5,551.5 Z M 803.5,613.5 C 808.032,612.467 812.698,612.634 817.5,614C 812.826,614.333 808.16,614.167 803.5,613.5 Z M 767.5,644.5 C 769.397,646.269 770.564,648.602 771,651.5C 772.214,653.049 773.714,654.215 775.5,655C 782.01,655.448 788.343,654.781 794.5,653C 788.289,656.627 781.622,658.627 774.5,659C 768.103,656.323 765.77,651.489 767.5,644.5 Z M 814.5,651.5 C 815.5,651.5 816.5,651.5 817.5,651.5C 817.756,653.912 816.756,655.579 814.5,656.5C 812.07,654.963 812.07,653.296 814.5,651.5 Z M 800.5,681.5 C 804.157,681.974 804.324,683.307 801,685.5C 799.232,684.318 799.065,682.985 800.5,681.5 Z M 800.5,688.5 C 801.952,690.848 802.618,693.514 802.5,696.5C 803.041,703.831 800.708,709.998 795.5,715C 792.649,716.289 789.649,716.789 786.5,716.5C 786.351,715.448 786.517,714.448 787,713.5C 789.846,711.743 792.512,709.743 795,707.5C 797.276,701.283 799.109,694.95 800.5,688.5 Z"/></g>
<g><path style="opacity:0.94" fill="#000000" d="M 402.5,503.5 C 406.967,503.133 411.3,503.633 415.5,505C 418.265,507.995 419.098,511.495 418,515.5C 408.559,536.049 399.392,556.716 390.5,577.5C 397.853,577.336 405.187,577.836 412.5,579C 417.307,588.665 414.64,595.331 404.5,599C 398.926,600.715 393.26,602.048 387.5,603C 386.484,603.519 385.818,604.353 385.5,605.5C 383.505,629.82 382.005,654.153 381,678.5C 377.783,682.408 373.616,684.075 368.5,683.5C 363.713,684.356 360.213,682.689 358,678.5C 356.847,655.213 356.347,631.88 356.5,608.5C 348.218,611.154 339.885,613.654 331.5,616C 316.503,636.986 302.503,658.653 289.5,681C 282.094,685.661 274.761,685.494 267.5,680.5C 266.16,679.312 265.493,677.812 265.5,676C 266.34,670.479 268.174,665.312 271,660.5C 278.833,649.333 286.667,638.167 294.5,627C 290.575,627.518 286.575,627.518 282.5,627C 274.122,622.952 272.289,616.786 277,608.5C 278.731,606.383 280.898,604.883 283.5,604C 294.167,601 304.833,598 315.5,595C 339.705,568.464 363.538,541.631 387,514.5C 391.794,510.197 396.961,506.53 402.5,503.5 Z M 408.5,505.5 C 414.368,505.864 416.535,508.864 415,514.5C 411.504,525.827 406.17,536.16 399,545.5C 398.83,543.155 399.163,540.821 400,538.5C 403.281,531.606 406.281,524.606 409,517.5C 409.747,514.147 409.247,510.98 407.5,508C 407.743,507.098 408.077,506.265 408.5,505.5 Z M 400.5,506.5 C 403.68,506.176 404.847,507.51 404,510.5C 402.301,511.406 400.467,511.739 398.5,511.5C 398.365,509.446 399.032,507.779 400.5,506.5 Z M 394.5,547.5 C 398.321,548.975 398.488,550.975 395,553.5C 391.897,551.888 391.73,549.888 394.5,547.5 Z M 391.5,560.5 C 393.225,560.843 393.725,561.843 393,563.5C 391.005,568.16 388.505,572.494 385.5,576.5C 384.646,570.19 386.646,564.857 391.5,560.5 Z M 367.5,569.5 C 366.134,574.573 364.468,579.573 362.5,584.5C 358.985,586.227 355.318,587.561 351.5,588.5C 350.479,587.998 350.312,587.332 351,586.5C 356.73,580.938 362.23,575.271 367.5,569.5 Z M 395.5,579.5 C 402.329,578.114 407.995,579.947 412.5,585C 411.646,586.022 410.646,586.855 409.5,587.5C 406.935,585.564 404.268,583.731 401.5,582C 398.833,581.667 396.167,581.333 393.5,581C 394.416,580.722 395.082,580.222 395.5,579.5 Z M 345.5,587.5 C 345.297,589.044 344.63,590.378 343.5,591.5C 344.921,594.428 343.921,595.762 340.5,595.5C 340.652,591.859 342.318,589.193 345.5,587.5 Z M 357.5,589.5 C 358.043,589.56 358.376,589.893 358.5,590.5C 355.87,593.817 352.537,596.15 348.5,597.5C 347.167,595.833 347.167,594.167 348.5,592.5C 351.582,591.365 354.582,590.365 357.5,589.5 Z M 405.5,589.5 C 407.167,589.5 408.833,589.5 410.5,589.5C 410.349,593.314 408.349,594.981 404.5,594.5C 404.366,592.708 404.699,591.042 405.5,589.5 Z M 376.5,643.5 C 377.5,643.5 378.5,643.5 379.5,643.5C 379.664,646.187 379.497,648.854 379,651.5C 376.355,652.708 375.188,651.708 375.5,648.5C 375.728,646.793 376.062,645.126 376.5,643.5 Z M 298.5,650.5 C 299.978,650.238 301.311,650.571 302.5,651.5C 300.882,655.434 298.882,655.934 296.5,653C 297.381,652.292 298.047,651.458 298.5,650.5 Z M 378.5,656.5 C 379.117,656.611 379.617,656.944 380,657.5C 380.789,663.237 380.456,668.903 379,674.5C 376.026,679.993 371.859,681.326 366.5,678.5C 369.472,676.694 372.305,674.694 375,672.5C 375.39,666.88 376.556,661.547 378.5,656.5 Z M 295.5,659.5 C 296.239,659.369 296.906,659.536 297.5,660C 294.338,666.661 290.672,672.994 286.5,679C 283.634,680.457 280.634,680.79 277.5,680C 276.663,678.989 276.33,677.822 276.5,676.5C 278.564,676.313 280.564,675.813 282.5,675C 286.96,669.895 291.294,664.728 295.5,659.5 Z"/></g>
<g><path style="opacity:0.95" fill="#000000" d="M 514.5,503.5 C 519.267,503.191 523.934,503.691 528.5,505C 533.432,507.859 535.765,512.193 535.5,518C 534.06,526.908 532.56,535.741 531,544.5C 537.333,535.833 543.667,527.167 550,518.5C 557.615,508.107 567.782,503.274 580.5,504C 586.326,504.507 590.492,507.34 593,512.5C 594.132,520.445 593.132,528.111 590,535.5C 576.667,562.833 563.333,590.167 550,617.5C 544.705,635.053 538.039,652.053 530,668.5C 522.423,679.346 512.923,681.346 501.5,674.5C 499.609,671.038 499.109,667.372 500,663.5C 502.785,655.929 506.119,648.595 510,641.5C 523.898,618.039 535.898,593.705 546,568.5C 530.755,589.324 515.755,610.324 501,631.5C 493.744,641.082 484.911,642.915 474.5,637C 470.065,631.741 469.232,625.908 472,619.5C 474.398,611.412 476.732,603.412 479,595.5C 463.333,622.167 447.667,648.833 432,675.5C 426.476,683.007 419.309,685.507 410.5,683C 408.27,680.434 406.936,677.434 406.5,674C 408.832,664.505 412.665,655.671 418,647.5C 425.333,636.167 432.667,624.833 440,613.5C 458.748,581.002 477.748,548.669 497,516.5C 501.778,510.55 507.611,506.216 514.5,503.5 Z M 515.5,506.5 C 520.576,507.456 520.41,508.789 515,510.5C 514.5,510.167 514,509.833 513.5,509.5C 514.193,508.482 514.859,507.482 515.5,506.5 Z M 571.5,506.5 C 573.167,506.5 574.833,506.5 576.5,506.5C 575.387,510.877 573.054,511.543 569.5,508.5C 570.243,507.818 570.909,507.151 571.5,506.5 Z M 522.5,507.5 C 526.562,507.724 529.395,509.724 531,513.5C 531.667,518.5 531.667,523.5 531,528.5C 530.527,530.779 529.527,532.779 528,534.5C 528.89,529.473 528.556,524.473 527,519.5C 524.819,516.656 522.653,513.822 520.5,511C 520.978,509.697 521.645,508.531 522.5,507.5 Z M 580.5,507.5 C 586.542,508.547 589.542,512.214 589.5,518.5C 588.266,528.203 585.266,537.203 580.5,545.5C 580.167,545 579.833,544.5 579.5,544C 582.075,537.849 584.075,531.516 585.5,525C 584.003,519.504 581.336,514.67 577.5,510.5C 578.34,509.265 579.34,508.265 580.5,507.5 Z M 525.5,545.5 C 526.477,548.287 526.81,551.287 526.5,554.5C 531.666,555.034 531.666,556.034 526.5,557.5C 522.853,556.514 521.686,554.181 523,550.5C 523.847,548.807 524.68,547.14 525.5,545.5 Z M 509.5,606.5 C 510.552,606.351 511.552,606.517 512.5,607C 511.273,611.241 508.607,613.575 504.5,614C 503.72,612.927 503.887,611.76 505,610.5C 506.397,608.93 507.897,607.596 509.5,606.5 Z M 502.5,619.5 C 503.097,619.735 503.43,620.235 503.5,621C 499.425,628.748 493.258,633.915 485,636.5C 482.979,636.327 481.146,635.66 479.5,634.5C 478.253,632.958 478.253,631.458 479.5,630C 483.167,629.667 486.833,629.333 490.5,629C 494.399,625.589 498.399,622.422 502.5,619.5 Z M 533.5,643.5 C 535.774,646.636 535.274,649.636 532,652.5C 530.069,649.198 530.569,646.198 533.5,643.5 Z M 530.5,656.5 C 531.043,656.56 531.376,656.893 531.5,657.5C 528.033,666.134 521.867,671.801 513,674.5C 509.525,672.784 509.025,670.617 511.5,668C 514.914,667.703 518.247,667.036 521.5,666C 524.641,662.813 527.641,659.646 530.5,656.5 Z M 427.5,674.5 C 424.014,679.003 419.347,681.003 413.5,680.5C 413.33,679.178 413.663,678.011 414.5,677C 418.933,676.582 423.266,675.749 427.5,674.5 Z"/></g>
<g><path style="opacity:0.93" fill="#000000" d="M 964.5,503.5 C 998.44,500.276 1014.61,515.609 1013,549.5C 1010.43,571.865 1003.1,592.531 991,611.5C 974.118,639.382 951.618,661.548 923.5,678C 910.86,683.98 897.86,684.98 884.5,681C 870.937,674.375 864.771,663.541 866,648.5C 868.454,636.258 873.121,624.925 880,614.5C 897.983,589.176 917.483,565.009 938.5,542C 932.931,539.965 928.097,536.798 924,532.5C 922,528.833 922,525.167 924,521.5C 926.921,517.908 930.421,515.075 934.5,513C 944.267,508.687 954.267,505.52 964.5,503.5 Z M 980.5,507.5 C 984.343,507.191 985.676,508.691 984.5,512C 982.866,512.494 981.199,512.66 979.5,512.5C 979.366,510.708 979.699,509.042 980.5,507.5 Z M 989.5,510.5 C 993.182,510.591 996.349,511.924 999,514.5C 1004.98,521.79 1008.15,530.124 1008.5,539.5C 1008.7,543.373 1008.03,547.039 1006.5,550.5C 1005.23,542.694 1003.4,535.027 1001,527.5C 998.047,522.214 994.047,517.88 989,514.5C 988.805,513.181 988.972,511.847 989.5,510.5 Z M 978.5,526.5 C 986.322,530.161 990.322,536.327 990.5,545C 988.167,561.502 982.333,576.669 973,590.5C 960.805,610.377 945.972,628.21 928.5,644C 922.016,649.411 915.016,654.078 907.5,658C 895.717,662.553 890.217,658.72 891,646.5C 893.117,640.264 895.784,634.264 899,628.5C 905.949,618.549 913.283,608.883 921,599.5C 939.035,580.466 956.702,561.133 974,541.5C 975.333,539.5 976.667,537.5 978,535.5C 978.498,532.518 978.665,529.518 978.5,526.5 Z M 964.5,532.5 C 965.774,533.189 965.774,534.023 964.5,535C 958.381,539.042 951.714,541.042 944.5,541C 951.554,538.824 958.22,535.99 964.5,532.5 Z M 1003.5,556.5 C 1005.35,556.222 1006.68,556.889 1007.5,558.5C 1007.07,561.147 1005.74,563.147 1003.5,564.5C 1002.12,564 1001.45,563 1001.5,561.5C 1001.9,559.7 1002.57,558.033 1003.5,556.5 Z M 936.5,573.5 C 938.646,573.696 938.812,574.696 937,576.5C 923.871,589.956 911.871,604.289 901,619.5C 900.792,615.887 901.792,612.554 904,609.5C 913.248,596.085 924.081,584.085 936.5,573.5 Z M 989.5,596.5 C 990.5,596.5 991.5,596.5 992.5,596.5C 992.458,599.585 991.125,601.919 988.5,603.5C 987.28,603.113 986.613,602.28 986.5,601C 987.315,599.357 988.315,597.857 989.5,596.5 Z M 985.5,607.5 C 987.225,607.843 987.725,608.843 987,610.5C 978.381,622.121 969.381,633.455 960,644.5C 955.946,649.057 951.446,653.057 946.5,656.5C 946.167,656.167 945.833,655.833 945.5,655.5C 952.774,646.056 960.607,637.056 969,628.5C 974.013,621.002 979.513,614.002 985.5,607.5 Z M 893.5,622.5 C 895.167,622.5 896.833,622.5 898.5,622.5C 898.047,627.346 896.047,628.346 892.5,625.5C 893.127,624.583 893.461,623.583 893.5,622.5 Z M 885.5,649.5 C 886.586,649.62 887.253,650.287 887.5,651.5C 888.178,654.544 889.011,657.544 890,660.5C 890.75,661.126 891.584,661.626 892.5,662C 898.64,662.653 904.64,662.319 910.5,661C 903.467,666.005 895.8,667.672 887.5,666C 885.129,664.257 883.795,661.923 883.5,659C 884.25,655.837 884.916,652.67 885.5,649.5 Z"/></g>
<g><path style="opacity:0.988" fill="#fceaed" d="M 674.5,333.5 C 675.167,333.833 675.833,334.167 676.5,334.5C 677.376,338.884 678.376,343.217 679.5,347.5C 679.945,352.955 680.945,358.288 682.5,363.5C 682.632,366.57 682.299,369.57 681.5,372.5C 679.796,375.256 678.463,378.256 677.5,381.5C 675.796,384.256 674.463,387.256 673.5,390.5C 671.707,392.426 670.707,394.759 670.5,397.5C 668.992,399.181 667.992,401.181 667.5,403.5C 665.935,405.509 664.935,407.843 664.5,410.5C 662.707,412.426 661.707,414.759 661.5,417.5C 659.707,419.426 658.707,421.759 658.5,424.5C 657.263,425.965 656.263,427.632 655.5,429.5C 654.501,432.162 653.501,434.828 652.5,437.5C 651.326,438.514 650.66,439.847 650.5,441.5C 649.167,444.167 647.833,446.833 646.5,449.5C 645.501,452.162 644.501,454.828 643.5,457.5C 638.987,465.863 634.987,474.529 631.5,483.5C 629.167,488.833 626.833,494.167 624.5,499.5C 621.044,505.076 618.711,511.076 617.5,517.5C 616.394,523.806 615.394,530.139 614.5,536.5C 613.941,540.853 613.275,545.186 612.5,549.5C 610.916,559.84 609.249,570.173 607.5,580.5C 605.276,591.734 603.609,603.068 602.5,614.5C 599.759,628.746 597.259,643.079 595,657.5C 593.523,672.525 600.356,680.191 615.5,680.5C 623.665,681.155 629.498,677.822 633,670.5C 636.619,651.572 639.786,632.572 642.5,613.5C 644.377,602.902 646.044,592.235 647.5,581.5C 649.193,572.673 650.693,563.673 652,554.5C 653.079,552.606 654.413,552.273 656,553.5C 656.529,556.947 657.362,560.281 658.5,563.5C 660.288,575.725 662.621,587.725 665.5,599.5C 667.008,609.378 669.008,619.044 671.5,628.5C 674.627,648.3 678.46,667.966 683,687.5C 686.228,694.533 691.728,698.2 699.5,698.5C 717.628,696.93 724.461,687.263 720,669.5C 716.843,655.559 714.01,641.559 711.5,627.5C 709.501,617.173 707.501,606.84 705.5,596.5C 703.245,586.893 701.245,577.226 699.5,567.5C 699.337,565.143 699.503,562.81 700,560.5C 701.803,556.256 703.303,551.922 704.5,547.5C 707.206,541.728 709.539,535.728 711.5,529.5C 713.783,523.934 715.783,518.267 717.5,512.5C 720.071,507.464 722.071,502.13 723.5,496.5C 726.014,491.453 728.014,486.119 729.5,480.5C 733.346,472.122 736.68,463.456 739.5,454.5C 740.871,452.064 741.871,449.397 742.5,446.5C 744.02,444.11 745.02,441.443 745.5,438.5C 746.537,437.07 747.204,435.403 747.5,433.5C 747.977,431.01 749.311,429.01 751.5,427.5C 754.091,429.38 756.591,431.38 759,433.5C 759.483,434.448 759.649,435.448 759.5,436.5C 756.156,437.167 753.489,438.834 751.5,441.5C 749.375,444.088 748.042,447.088 747.5,450.5C 746.706,456.876 748.706,462.043 753.5,466C 766.846,464.809 780.179,463.142 793.5,461C 797.608,459.973 801.608,458.64 805.5,457C 806.781,455.591 807.781,454.091 808.5,452.5C 808.833,452.5 809.167,452.5 809.5,452.5C 808.643,457.522 805.643,460.355 800.5,461C 784.675,464.645 768.675,466.645 752.5,467C 749.619,465.749 747.786,463.583 747,460.5C 744.003,448.954 747.503,440.287 757.5,434.5C 755.5,432.833 753.5,431.167 751.5,429.5C 734.081,474.505 717.081,519.672 700.5,565C 707.795,601.142 714.962,637.309 722,673.5C 723.915,689.994 716.581,698.994 700,700.5C 691.944,700.141 685.944,696.475 682,689.5C 672.792,644.459 663.459,599.459 654,554.5C 647.548,593.879 640.881,633.212 634,672.5C 627.402,681.921 618.568,684.754 607.5,681C 595.292,676.757 590.792,668.257 594,655.5C 601.667,607.5 609.333,559.5 617,511.5C 638.895,463.541 660.395,415.374 681.5,367C 679.1,355.831 676.766,344.665 674.5,333.5 Z"/></g>
<g><path style="opacity:1" fill="#e8224d" d="M 642.5,613.5 C 639.786,632.572 636.619,651.572 633,670.5C 629.498,677.822 623.665,681.155 615.5,680.5C 600.356,680.191 593.523,672.525 595,657.5C 597.259,643.079 599.759,628.746 602.5,614.5C 615.84,614.389 629.173,614.055 642.5,613.5 Z"/></g>
<g><path style="opacity:1" fill="#e81e4d" d="M 711.5,627.5 C 714.01,641.559 716.843,655.559 720,669.5C 724.461,687.263 717.628,696.93 699.5,698.5C 691.728,698.2 686.228,694.533 683,687.5C 678.46,667.966 674.627,648.3 671.5,628.5C 684.832,627.192 698.165,626.859 711.5,627.5 Z"/></g>
<g><path style="opacity:1" fill="#e82c4c" d="M 705.5,596.5 C 707.501,606.84 709.501,617.173 711.5,627.5C 698.165,626.859 684.832,627.192 671.5,628.5C 669.008,619.044 667.008,609.378 665.5,599.5C 665.5,598.5 665.5,597.5 665.5,596.5C 678.91,595.948 692.243,595.948 705.5,596.5 Z"/></g>
<g><path style="opacity:1" fill="#e8334d" d="M 647.5,581.5 C 646.044,592.235 644.377,602.902 642.5,613.5C 629.173,614.055 615.84,614.389 602.5,614.5C 603.609,603.068 605.276,591.734 607.5,580.5C 617.51,580.5 627.51,580.166 637.5,579.5C 641.239,579.514 644.572,580.18 647.5,581.5 Z"/></g>
<g><path style="opacity:1" fill="#e8384d" d="M 699.5,567.5 C 701.245,577.226 703.245,586.893 705.5,596.5C 692.243,595.948 678.91,595.948 665.5,596.5C 665.5,597.5 665.5,598.5 665.5,599.5C 662.621,587.725 660.288,575.725 658.5,563.5C 671.816,562.68 685.149,562.013 698.5,561.5C 698.205,563.735 698.539,565.735 699.5,567.5 Z"/></g>
<g><path style="opacity:1" fill="#e8414d" d="M 704.5,547.5 C 703.303,551.922 701.803,556.256 700,560.5C 699.503,562.81 699.337,565.143 699.5,567.5C 698.539,565.735 698.205,563.735 698.5,561.5C 685.149,562.013 671.816,562.68 658.5,563.5C 657.362,560.281 656.529,556.947 656,553.5C 654.413,552.273 653.079,552.606 652,554.5C 650.693,563.673 649.193,572.673 647.5,581.5C 644.572,580.18 641.239,579.514 637.5,579.5C 627.51,580.166 617.51,580.5 607.5,580.5C 609.249,570.173 610.916,559.84 612.5,549.5C 642.003,548.256 671.503,546.923 701,545.5C 702.681,545.608 703.848,546.275 704.5,547.5 Z"/></g>
<g><path style="opacity:1" fill="#e8474c" d="M 711.5,529.5 C 709.539,535.728 707.206,541.728 704.5,547.5C 703.848,546.275 702.681,545.608 701,545.5C 671.503,546.923 642.003,548.256 612.5,549.5C 613.275,545.186 613.941,540.853 614.5,536.5C 615.404,535.791 615.737,534.791 615.5,533.5C 647.52,532.371 679.52,531.038 711.5,529.5 Z"/></g>
<g><path style="opacity:1" fill="#e84e4c" d="M 717.5,512.5 C 715.783,518.267 713.783,523.934 711.5,529.5C 679.52,531.038 647.52,532.371 615.5,533.5C 615.737,534.791 615.404,535.791 614.5,536.5C 615.394,530.139 616.394,523.806 617.5,517.5C 618.309,516.531 619.309,515.698 620.5,515C 649.67,513.923 678.837,512.756 708,511.5C 711.352,511.502 714.518,511.835 717.5,512.5 Z"/></g>
<g><path style="opacity:1" fill="#e8544c" d="M 723.5,496.5 C 722.071,502.13 720.071,507.464 717.5,512.5C 714.518,511.835 711.352,511.502 708,511.5C 678.837,512.756 649.67,513.923 620.5,515C 619.309,515.698 618.309,516.531 617.5,517.5C 618.711,511.076 621.044,505.076 624.5,499.5C 657.629,497.442 690.629,496.442 723.5,496.5 Z"/></g>
<g><path style="opacity:1" fill="#e85a4c" d="M 729.5,480.5 C 728.014,486.119 726.014,491.453 723.5,496.5C 690.629,496.442 657.629,497.442 624.5,499.5C 626.833,494.167 629.167,488.833 631.5,483.5C 664.311,481.57 696.978,480.57 729.5,480.5 Z"/></g>
<g><path style="opacity:1" fill="#e8624c" d="M 739.5,454.5 C 736.68,463.456 733.346,472.122 729.5,480.5C 696.978,480.57 664.311,481.57 631.5,483.5C 634.987,474.529 638.987,465.863 643.5,457.5C 675.41,456.587 707.244,455.254 739,453.5C 739.399,453.728 739.565,454.062 739.5,454.5 Z"/></g>
<g><path style="opacity:1" fill="#e26751" d="M 742.5,446.5 C 741.871,449.397 740.871,452.064 739.5,454.5C 739.565,454.062 739.399,453.728 739,453.5C 707.244,455.254 675.41,456.587 643.5,457.5C 644.501,454.828 645.501,452.162 646.5,449.5C 677.683,448.401 708.85,447.067 740,445.5C 741.07,445.528 741.903,445.861 742.5,446.5 Z"/></g>
<g><path style="opacity:1" fill="#d5685d" d="M 745.5,438.5 C 745.02,441.443 744.02,444.11 742.5,446.5C 741.903,445.861 741.07,445.528 740,445.5C 708.85,447.067 677.683,448.401 646.5,449.5C 647.833,446.833 649.167,444.167 650.5,441.5C 682.166,440.475 713.832,439.475 745.5,438.5 Z"/></g>
<g><path style="opacity:1" fill="#cb6867" d="M 747.5,433.5 C 747.204,435.403 746.537,437.07 745.5,438.5C 713.832,439.475 682.166,440.475 650.5,441.5C 650.66,439.847 651.326,438.514 652.5,437.5C 684.18,436.314 715.847,434.981 747.5,433.5 Z"/></g>
</svg>
